<mxfile host="Electron" modified="2023-09-21T14:20:41.934Z" agent="Mozilla/5.0 (Windows NT 10.0; Win64; x64) AppleWebKit/537.36 (KHTML, like Gecko) draw.io/21.7.5 Chrome/114.0.5735.289 Electron/25.8.1 Safari/537.36" etag="mB3Vlk79JKkiIY4IR5ci" version="21.7.5" type="device">
  <diagram name="第 1 页" id="pFnk_rlknGDZt99iV2_U">
    <mxGraphModel dx="2304" dy="3667" grid="1" gridSize="10" guides="1" tooltips="1" connect="1" arrows="1" fold="1" page="1" pageScale="1" pageWidth="827" pageHeight="1169" math="0" shadow="0">
      <root>
        <mxCell id="0" />
        <mxCell id="1" parent="0" />
        <mxCell id="JGjVJQRwr5gKo0xPMDSC-1" value="C++" style="rounded=1;whiteSpace=wrap;html=1;fillColor=#6a00ff;fontColor=#ffffff;strokeColor=#3700CC;" parent="1" vertex="1">
          <mxGeometry x="354" y="555" width="120" height="60" as="geometry" />
        </mxCell>
        <mxCell id="JGjVJQRwr5gKo0xPMDSC-6" value="bool" style="rounded=1;whiteSpace=wrap;html=1;" parent="1" vertex="1">
          <mxGeometry x="1654" y="-2200" width="120" height="60" as="geometry" />
        </mxCell>
        <mxCell id="JGjVJQRwr5gKo0xPMDSC-11" value="非0为真" style="rounded=1;whiteSpace=wrap;html=1;" parent="1" vertex="1">
          <mxGeometry x="1914" y="-2200" width="120" height="60" as="geometry" />
        </mxCell>
        <mxCell id="JGjVJQRwr5gKo0xPMDSC-13" value="" style="endArrow=classic;html=1;rounded=0;exitX=1;exitY=0.5;exitDx=0;exitDy=0;entryX=0;entryY=0.5;entryDx=0;entryDy=0;" parent="1" source="JGjVJQRwr5gKo0xPMDSC-6" target="JGjVJQRwr5gKo0xPMDSC-11" edge="1">
          <mxGeometry width="50" height="50" relative="1" as="geometry">
            <mxPoint x="1514" y="-2000" as="sourcePoint" />
            <mxPoint x="1564" y="-2050" as="targetPoint" />
          </mxGeometry>
        </mxCell>
        <mxCell id="JGjVJQRwr5gKo0xPMDSC-14" value="内联函数&lt;br&gt;提高程序运行速度" style="rounded=1;whiteSpace=wrap;html=1;" parent="1" vertex="1">
          <mxGeometry x="1654" y="-1960" width="120" height="60" as="geometry" />
        </mxCell>
        <mxCell id="JGjVJQRwr5gKo0xPMDSC-15" value="第一章" style="rounded=1;whiteSpace=wrap;html=1;fillColor=#a20025;fontColor=#ffffff;strokeColor=#6F0000;" parent="1" vertex="1">
          <mxGeometry x="750" y="120" width="120" height="60" as="geometry" />
        </mxCell>
        <mxCell id="JGjVJQRwr5gKo0xPMDSC-16" value="" style="shape=flexArrow;endArrow=classic;html=1;rounded=0;entryX=0;entryY=0.5;entryDx=0;entryDy=0;exitX=1;exitY=0.5;exitDx=0;exitDy=0;" parent="1" source="JGjVJQRwr5gKo0xPMDSC-1" target="JGjVJQRwr5gKo0xPMDSC-15" edge="1">
          <mxGeometry width="50" height="50" relative="1" as="geometry">
            <mxPoint x="510" y="530" as="sourcePoint" />
            <mxPoint x="560" y="480" as="targetPoint" />
          </mxGeometry>
        </mxCell>
        <mxCell id="JGjVJQRwr5gKo0xPMDSC-17" value="" style="endArrow=classic;html=1;rounded=0;entryX=-0.027;entryY=0.593;entryDx=0;entryDy=0;entryPerimeter=0;exitX=1;exitY=0.5;exitDx=0;exitDy=0;" parent="1" source="JGjVJQRwr5gKo0xPMDSC-15" target="JGjVJQRwr5gKo0xPMDSC-6" edge="1">
          <mxGeometry width="50" height="50" relative="1" as="geometry">
            <mxPoint x="810" y="260" as="sourcePoint" />
            <mxPoint x="860" y="210" as="targetPoint" />
          </mxGeometry>
        </mxCell>
        <mxCell id="JGjVJQRwr5gKo0xPMDSC-18" value="" style="endArrow=classic;html=1;rounded=0;exitX=1;exitY=0.5;exitDx=0;exitDy=0;entryX=0;entryY=0.5;entryDx=0;entryDy=0;" parent="1" source="JGjVJQRwr5gKo0xPMDSC-15" target="JGjVJQRwr5gKo0xPMDSC-14" edge="1">
          <mxGeometry width="50" height="50" relative="1" as="geometry">
            <mxPoint x="800" y="300" as="sourcePoint" />
            <mxPoint x="850" y="250" as="targetPoint" />
          </mxGeometry>
        </mxCell>
        <mxCell id="JGjVJQRwr5gKo0xPMDSC-19" value="不会到栈区，&lt;br&gt;用代码区空间换取出入栈区的时间" style="rounded=1;whiteSpace=wrap;html=1;" parent="1" vertex="1">
          <mxGeometry x="1914" y="-2060" width="200" height="60" as="geometry" />
        </mxCell>
        <mxCell id="JGjVJQRwr5gKo0xPMDSC-21" value="减少出栈入栈的时间" style="rounded=1;whiteSpace=wrap;html=1;" parent="1" vertex="1">
          <mxGeometry x="1914" y="-1960" width="150" height="60" as="geometry" />
        </mxCell>
        <mxCell id="JGjVJQRwr5gKo0xPMDSC-22" value="" style="endArrow=classic;html=1;rounded=0;exitX=1;exitY=0.5;exitDx=0;exitDy=0;entryX=0;entryY=0.5;entryDx=0;entryDy=0;" parent="1" source="JGjVJQRwr5gKo0xPMDSC-14" target="JGjVJQRwr5gKo0xPMDSC-19" edge="1">
          <mxGeometry width="50" height="50" relative="1" as="geometry">
            <mxPoint x="1714" y="-1870" as="sourcePoint" />
            <mxPoint x="1764" y="-1920" as="targetPoint" />
          </mxGeometry>
        </mxCell>
        <mxCell id="JGjVJQRwr5gKo0xPMDSC-23" value="" style="endArrow=classic;html=1;rounded=0;exitX=1;exitY=0.5;exitDx=0;exitDy=0;entryX=0;entryY=0.5;entryDx=0;entryDy=0;" parent="1" source="JGjVJQRwr5gKo0xPMDSC-14" target="JGjVJQRwr5gKo0xPMDSC-21" edge="1">
          <mxGeometry width="50" height="50" relative="1" as="geometry">
            <mxPoint x="1814" y="-1840" as="sourcePoint" />
            <mxPoint x="1864" y="-1890" as="targetPoint" />
          </mxGeometry>
        </mxCell>
        <mxCell id="JGjVJQRwr5gKo0xPMDSC-24" value="关键字：inline&lt;br&gt;inline void fun1(){}" style="rounded=1;whiteSpace=wrap;html=1;" parent="1" vertex="1">
          <mxGeometry x="1914" y="-1860" width="149" height="60" as="geometry" />
        </mxCell>
        <mxCell id="JGjVJQRwr5gKo0xPMDSC-25" value="" style="endArrow=classic;html=1;rounded=0;exitX=0.992;exitY=0.595;exitDx=0;exitDy=0;exitPerimeter=0;entryX=-0.014;entryY=0.606;entryDx=0;entryDy=0;entryPerimeter=0;" parent="1" source="JGjVJQRwr5gKo0xPMDSC-14" target="JGjVJQRwr5gKo0xPMDSC-24" edge="1">
          <mxGeometry width="50" height="50" relative="1" as="geometry">
            <mxPoint x="1723" y="-1800" as="sourcePoint" />
            <mxPoint x="1773" y="-1850" as="targetPoint" />
          </mxGeometry>
        </mxCell>
        <mxCell id="JGjVJQRwr5gKo0xPMDSC-26" value="&lt;div style=&quot;&quot;&gt;&lt;span style=&quot;background-color: initial;&quot;&gt;特点：&lt;/span&gt;&lt;/div&gt;1.还是一个函数&lt;br&gt;2.调用还是一样的&lt;br&gt;2.内存膨胀方式减少函数跳转&lt;br&gt;3.写成内联函数的函数体不能太长&lt;br&gt;4.有循环尽量不要使用内联&lt;br&gt;5.简单的赋值和返回的语句，调用频率高建议写成内联。" style="rounded=0;whiteSpace=wrap;html=1;align=left;" parent="1" vertex="1">
          <mxGeometry x="2257" y="-1890" width="306" height="120" as="geometry" />
        </mxCell>
        <mxCell id="JGjVJQRwr5gKo0xPMDSC-27" value="" style="endArrow=classic;html=1;rounded=0;exitX=1;exitY=0.5;exitDx=0;exitDy=0;entryX=0;entryY=0.5;entryDx=0;entryDy=0;" parent="1" source="JGjVJQRwr5gKo0xPMDSC-24" target="JGjVJQRwr5gKo0xPMDSC-26" edge="1">
          <mxGeometry width="50" height="50" relative="1" as="geometry">
            <mxPoint x="2083" y="-1830" as="sourcePoint" />
            <mxPoint x="2133" y="-1880" as="targetPoint" />
          </mxGeometry>
        </mxCell>
        <mxCell id="JGjVJQRwr5gKo0xPMDSC-28" value="函数重载" style="rounded=1;whiteSpace=wrap;html=1;" parent="1" vertex="1">
          <mxGeometry x="1654" y="-1630" width="120" height="60" as="geometry" />
        </mxCell>
        <mxCell id="JGjVJQRwr5gKo0xPMDSC-29" value="" style="endArrow=classic;html=1;rounded=0;entryX=0;entryY=0.5;entryDx=0;entryDy=0;" parent="1" target="JGjVJQRwr5gKo0xPMDSC-28" edge="1">
          <mxGeometry width="50" height="50" relative="1" as="geometry">
            <mxPoint x="870" y="150" as="sourcePoint" />
            <mxPoint x="1020" y="150" as="targetPoint" />
          </mxGeometry>
        </mxCell>
        <mxCell id="JGjVJQRwr5gKo0xPMDSC-30" value="在同一个项目中定义的函数名字可以重复" style="rounded=1;whiteSpace=wrap;html=1;" parent="1" vertex="1">
          <mxGeometry x="1917" y="-1690" width="120" height="60" as="geometry" />
        </mxCell>
        <mxCell id="JGjVJQRwr5gKo0xPMDSC-31" value="" style="endArrow=classic;html=1;rounded=0;exitX=1;exitY=0.5;exitDx=0;exitDy=0;entryX=0;entryY=0.5;entryDx=0;entryDy=0;" parent="1" source="JGjVJQRwr5gKo0xPMDSC-28" target="JGjVJQRwr5gKo0xPMDSC-30" edge="1">
          <mxGeometry width="50" height="50" relative="1" as="geometry">
            <mxPoint x="1793" y="-1600" as="sourcePoint" />
            <mxPoint x="1843" y="-1650" as="targetPoint" />
          </mxGeometry>
        </mxCell>
        <mxCell id="JGjVJQRwr5gKo0xPMDSC-32" value="函数名必须一致" style="rounded=1;whiteSpace=wrap;html=1;" parent="1" vertex="1">
          <mxGeometry x="1917" y="-1590" width="120" height="60" as="geometry" />
        </mxCell>
        <mxCell id="JGjVJQRwr5gKo0xPMDSC-33" value="" style="endArrow=classic;html=1;rounded=0;exitX=1;exitY=0.5;exitDx=0;exitDy=0;entryX=0.001;entryY=0.583;entryDx=0;entryDy=0;entryPerimeter=0;" parent="1" source="JGjVJQRwr5gKo0xPMDSC-28" target="JGjVJQRwr5gKo0xPMDSC-32" edge="1">
          <mxGeometry width="50" height="50" relative="1" as="geometry">
            <mxPoint x="1783" y="-1430" as="sourcePoint" />
            <mxPoint x="1833" y="-1480" as="targetPoint" />
          </mxGeometry>
        </mxCell>
        <mxCell id="JGjVJQRwr5gKo0xPMDSC-34" value="参数列表不同：&lt;br&gt;(二义性)" style="rounded=1;whiteSpace=wrap;html=1;" parent="1" vertex="1">
          <mxGeometry x="1917" y="-1480" width="120" height="60" as="geometry" />
        </mxCell>
        <mxCell id="JGjVJQRwr5gKo0xPMDSC-35" value="" style="endArrow=classic;html=1;rounded=0;exitX=1;exitY=0.5;exitDx=0;exitDy=0;entryX=0;entryY=0.5;entryDx=0;entryDy=0;" parent="1" source="JGjVJQRwr5gKo0xPMDSC-28" target="JGjVJQRwr5gKo0xPMDSC-34" edge="1">
          <mxGeometry width="50" height="50" relative="1" as="geometry">
            <mxPoint x="1823" y="-1420" as="sourcePoint" />
            <mxPoint x="1873" y="-1470" as="targetPoint" />
          </mxGeometry>
        </mxCell>
        <mxCell id="JGjVJQRwr5gKo0xPMDSC-36" value="参数个数不同" style="rounded=1;whiteSpace=wrap;html=1;" parent="1" vertex="1">
          <mxGeometry x="2193" y="-1540" width="120" height="60" as="geometry" />
        </mxCell>
        <mxCell id="JGjVJQRwr5gKo0xPMDSC-38" value="参数类型不同" style="rounded=1;whiteSpace=wrap;html=1;" parent="1" vertex="1">
          <mxGeometry x="2193" y="-1400" width="120" height="60" as="geometry" />
        </mxCell>
        <mxCell id="JGjVJQRwr5gKo0xPMDSC-39" value="" style="endArrow=classic;html=1;rounded=0;exitX=1;exitY=0.5;exitDx=0;exitDy=0;entryX=0;entryY=0.5;entryDx=0;entryDy=0;" parent="1" source="JGjVJQRwr5gKo0xPMDSC-34" target="JGjVJQRwr5gKo0xPMDSC-36" edge="1">
          <mxGeometry width="50" height="50" relative="1" as="geometry">
            <mxPoint x="2083" y="-1440" as="sourcePoint" />
            <mxPoint x="2133" y="-1490" as="targetPoint" />
          </mxGeometry>
        </mxCell>
        <mxCell id="JGjVJQRwr5gKo0xPMDSC-40" value="" style="endArrow=classic;html=1;rounded=0;exitX=1;exitY=0.5;exitDx=0;exitDy=0;entryX=-0.034;entryY=0.451;entryDx=0;entryDy=0;entryPerimeter=0;" parent="1" source="JGjVJQRwr5gKo0xPMDSC-34" target="JGjVJQRwr5gKo0xPMDSC-38" edge="1">
          <mxGeometry width="50" height="50" relative="1" as="geometry">
            <mxPoint x="2083" y="-1320" as="sourcePoint" />
            <mxPoint x="2133" y="-1370" as="targetPoint" />
          </mxGeometry>
        </mxCell>
        <mxCell id="JGjVJQRwr5gKo0xPMDSC-41" value="1.what?&lt;br&gt;2.why?&lt;br&gt;3.how" style="rounded=1;whiteSpace=wrap;html=1;fillColor=#1ba1e2;fontColor=#ffffff;strokeColor=#006EAF;" parent="1" vertex="1">
          <mxGeometry x="360" y="450" width="120" height="60" as="geometry" />
        </mxCell>
        <mxCell id="JGjVJQRwr5gKo0xPMDSC-42" value="fun1(3.14);&lt;br&gt;注意一点3.14为double类型" style="rounded=1;whiteSpace=wrap;html=1;" parent="1" vertex="1">
          <mxGeometry x="2391" y="-1400" width="172" height="60" as="geometry" />
        </mxCell>
        <mxCell id="JGjVJQRwr5gKo0xPMDSC-43" value="" style="endArrow=classic;html=1;rounded=0;exitX=1;exitY=0.5;exitDx=0;exitDy=0;entryX=0;entryY=0.5;entryDx=0;entryDy=0;" parent="1" source="JGjVJQRwr5gKo0xPMDSC-38" target="JGjVJQRwr5gKo0xPMDSC-42" edge="1">
          <mxGeometry width="50" height="50" relative="1" as="geometry">
            <mxPoint x="2283" y="-1220" as="sourcePoint" />
            <mxPoint x="2333" y="-1270" as="targetPoint" />
          </mxGeometry>
        </mxCell>
        <mxCell id="JGjVJQRwr5gKo0xPMDSC-44" value="函数参数缺省" style="rounded=1;whiteSpace=wrap;html=1;" parent="1" vertex="1">
          <mxGeometry x="1654" y="-1030" width="120" height="60" as="geometry" />
        </mxCell>
        <mxCell id="JGjVJQRwr5gKo0xPMDSC-45" value="" style="endArrow=classic;html=1;rounded=0;entryX=0;entryY=0.5;entryDx=0;entryDy=0;" parent="1" target="JGjVJQRwr5gKo0xPMDSC-44" edge="1">
          <mxGeometry width="50" height="50" relative="1" as="geometry">
            <mxPoint x="870" y="150" as="sourcePoint" />
            <mxPoint x="1040" y="220" as="targetPoint" />
          </mxGeometry>
        </mxCell>
        <mxCell id="JGjVJQRwr5gKo0xPMDSC-46" value="声明函数的某个参数的时候指定一个默认值&lt;br&gt;调用该函数时如果采用默认值，无须指定该参数" style="rounded=1;whiteSpace=wrap;html=1;" parent="1" vertex="1">
          <mxGeometry x="1894" y="-970" width="271" height="60" as="geometry" />
        </mxCell>
        <mxCell id="JGjVJQRwr5gKo0xPMDSC-47" value="" style="endArrow=classic;html=1;rounded=0;exitX=1;exitY=0.5;exitDx=0;exitDy=0;entryX=0;entryY=0.5;entryDx=0;entryDy=0;" parent="1" source="JGjVJQRwr5gKo0xPMDSC-44" target="JGjVJQRwr5gKo0xPMDSC-46" edge="1">
          <mxGeometry width="50" height="50" relative="1" as="geometry">
            <mxPoint x="1780" y="-1040" as="sourcePoint" />
            <mxPoint x="1840" y="-1080" as="targetPoint" />
          </mxGeometry>
        </mxCell>
        <mxCell id="JGjVJQRwr5gKo0xPMDSC-48" value="定义：void fun1(int a,float b = 3.14f){}&lt;br&gt;调用时候就可以省略b，将使用默认值" style="rounded=0;whiteSpace=wrap;html=1;" parent="1" vertex="1">
          <mxGeometry x="2360" y="-1200" width="264" height="60" as="geometry" />
        </mxCell>
        <mxCell id="JGjVJQRwr5gKo0xPMDSC-49" value="" style="endArrow=classic;html=1;rounded=0;exitX=1;exitY=0.5;exitDx=0;exitDy=0;entryX=0;entryY=0.5;entryDx=0;entryDy=0;" parent="1" source="JGjVJQRwr5gKo0xPMDSC-46" target="JGjVJQRwr5gKo0xPMDSC-48" edge="1">
          <mxGeometry width="50" height="50" relative="1" as="geometry">
            <mxPoint x="2220" y="-1100" as="sourcePoint" />
            <mxPoint x="2270" y="-1150" as="targetPoint" />
          </mxGeometry>
        </mxCell>
        <mxCell id="JGjVJQRwr5gKo0xPMDSC-50" value="传参数的顺序是从前向后&lt;br&gt;从左到右" style="rounded=0;whiteSpace=wrap;html=1;" parent="1" vertex="1">
          <mxGeometry x="2359" y="-1070" width="230" height="60" as="geometry" />
        </mxCell>
        <mxCell id="JGjVJQRwr5gKo0xPMDSC-51" value="" style="endArrow=classic;html=1;rounded=0;exitX=1;exitY=0.5;exitDx=0;exitDy=0;entryX=0;entryY=0.5;entryDx=0;entryDy=0;" parent="1" source="JGjVJQRwr5gKo0xPMDSC-46" target="JGjVJQRwr5gKo0xPMDSC-50" edge="1">
          <mxGeometry width="50" height="50" relative="1" as="geometry">
            <mxPoint x="2210" y="-960" as="sourcePoint" />
            <mxPoint x="2260" y="-1010" as="targetPoint" />
          </mxGeometry>
        </mxCell>
        <mxCell id="JGjVJQRwr5gKo0xPMDSC-52" value="参数缺省顺序则反之&lt;br&gt;从后向前缺省&amp;nbsp;" style="rounded=0;whiteSpace=wrap;html=1;" parent="1" vertex="1">
          <mxGeometry x="2359" y="-970" width="155" height="60" as="geometry" />
        </mxCell>
        <mxCell id="JGjVJQRwr5gKo0xPMDSC-53" value="" style="endArrow=classic;html=1;rounded=0;exitX=1;exitY=0.5;exitDx=0;exitDy=0;entryX=0;entryY=0.5;entryDx=0;entryDy=0;" parent="1" source="JGjVJQRwr5gKo0xPMDSC-46" target="JGjVJQRwr5gKo0xPMDSC-52" edge="1">
          <mxGeometry width="50" height="50" relative="1" as="geometry">
            <mxPoint x="2250" y="-860" as="sourcePoint" />
            <mxPoint x="2300" y="-910" as="targetPoint" />
          </mxGeometry>
        </mxCell>
        <mxCell id="JGjVJQRwr5gKo0xPMDSC-54" value="函数缺省：声明的时候给默认值，在定义的时候不要给默认值" style="rounded=0;whiteSpace=wrap;html=1;" parent="1" vertex="1">
          <mxGeometry x="2360" y="-850" width="321" height="60" as="geometry" />
        </mxCell>
        <mxCell id="JGjVJQRwr5gKo0xPMDSC-56" value="调用函数不穿参数&lt;br&gt;被调函数的函数名相同参数不同，构成重载&lt;br&gt;编译器不知道调用哪个会报错" style="rounded=0;whiteSpace=wrap;html=1;" parent="1" vertex="1">
          <mxGeometry x="2359" y="-720" width="435" height="60" as="geometry" />
        </mxCell>
        <mxCell id="JGjVJQRwr5gKo0xPMDSC-57" value="" style="endArrow=classic;html=1;rounded=0;exitX=1;exitY=0.5;exitDx=0;exitDy=0;entryX=0;entryY=0.5;entryDx=0;entryDy=0;" parent="1" source="JGjVJQRwr5gKo0xPMDSC-46" target="JGjVJQRwr5gKo0xPMDSC-56" edge="1">
          <mxGeometry width="50" height="50" relative="1" as="geometry">
            <mxPoint x="2174" y="-780" as="sourcePoint" />
            <mxPoint x="2224" y="-830" as="targetPoint" />
          </mxGeometry>
        </mxCell>
        <mxCell id="JGjVJQRwr5gKo0xPMDSC-58" value="" style="endArrow=classic;html=1;rounded=0;exitX=1;exitY=0.5;exitDx=0;exitDy=0;entryX=0;entryY=0.5;entryDx=0;entryDy=0;" parent="1" source="JGjVJQRwr5gKo0xPMDSC-46" target="JGjVJQRwr5gKo0xPMDSC-54" edge="1">
          <mxGeometry width="50" height="50" relative="1" as="geometry">
            <mxPoint x="2174" y="-780" as="sourcePoint" />
            <mxPoint x="2224" y="-830" as="targetPoint" />
          </mxGeometry>
        </mxCell>
        <mxCell id="JGjVJQRwr5gKo0xPMDSC-59" value="解决办法：&lt;br&gt;调用函数时传参数，或者被调函数删其一" style="rounded=0;whiteSpace=wrap;html=1;" parent="1" vertex="1">
          <mxGeometry x="2944" y="-720" width="260" height="60" as="geometry" />
        </mxCell>
        <mxCell id="JGjVJQRwr5gKo0xPMDSC-60" value="" style="endArrow=classic;html=1;rounded=0;exitX=1;exitY=0.5;exitDx=0;exitDy=0;entryX=0;entryY=0.5;entryDx=0;entryDy=0;" parent="1" source="JGjVJQRwr5gKo0xPMDSC-56" target="JGjVJQRwr5gKo0xPMDSC-59" edge="1">
          <mxGeometry width="50" height="50" relative="1" as="geometry">
            <mxPoint x="2854" y="-680" as="sourcePoint" />
            <mxPoint x="2904" y="-730" as="targetPoint" />
          </mxGeometry>
        </mxCell>
        <mxCell id="u3ypEavXUMOr_k0qfXqD-1" value="引用" style="rounded=1;whiteSpace=wrap;html=1;" parent="1" vertex="1">
          <mxGeometry x="1654" y="-370" width="120" height="60" as="geometry" />
        </mxCell>
        <mxCell id="u3ypEavXUMOr_k0qfXqD-2" value="" style="endArrow=classic;html=1;rounded=0;exitX=1;exitY=0.5;exitDx=0;exitDy=0;entryX=0;entryY=0.5;entryDx=0;entryDy=0;" parent="1" source="JGjVJQRwr5gKo0xPMDSC-15" target="u3ypEavXUMOr_k0qfXqD-1" edge="1">
          <mxGeometry width="50" height="50" relative="1" as="geometry">
            <mxPoint x="1020" y="620" as="sourcePoint" />
            <mxPoint x="1070" y="570" as="targetPoint" />
          </mxGeometry>
        </mxCell>
        <mxCell id="5pbfe2Rh54rbR8eBnrhX-1" value="对变量或者对象取别名" style="rounded=1;whiteSpace=wrap;html=1;" parent="1" vertex="1">
          <mxGeometry x="1917" y="-460" width="295" height="60" as="geometry" />
        </mxCell>
        <mxCell id="5pbfe2Rh54rbR8eBnrhX-2" value="" style="endArrow=classic;html=1;rounded=0;exitX=1;exitY=0.5;exitDx=0;exitDy=0;entryX=0;entryY=0.5;entryDx=0;entryDy=0;" parent="1" source="u3ypEavXUMOr_k0qfXqD-1" target="5pbfe2Rh54rbR8eBnrhX-1" edge="1">
          <mxGeometry width="50" height="50" relative="1" as="geometry">
            <mxPoint x="1814" y="-340" as="sourcePoint" />
            <mxPoint x="1864" y="-390" as="targetPoint" />
          </mxGeometry>
        </mxCell>
        <mxCell id="5pbfe2Rh54rbR8eBnrhX-3" value="定义引用必须初始化" style="rounded=1;whiteSpace=wrap;html=1;" parent="1" vertex="1">
          <mxGeometry x="1917" y="-270" width="170" height="60" as="geometry" />
        </mxCell>
        <mxCell id="5pbfe2Rh54rbR8eBnrhX-4" value="" style="endArrow=classic;html=1;rounded=0;exitX=1;exitY=0.5;exitDx=0;exitDy=0;entryX=0;entryY=0.5;entryDx=0;entryDy=0;" parent="1" source="u3ypEavXUMOr_k0qfXqD-1" target="5pbfe2Rh54rbR8eBnrhX-3" edge="1">
          <mxGeometry width="50" height="50" relative="1" as="geometry">
            <mxPoint x="1774" y="-220" as="sourcePoint" />
            <mxPoint x="1824" y="-270" as="targetPoint" />
          </mxGeometry>
        </mxCell>
        <mxCell id="5pbfe2Rh54rbR8eBnrhX-5" value="int&amp;nbsp; a = 0;&lt;br&gt;int &amp;amp;dd = a;&lt;br&gt;a和dd是同一段内存的不同名字&lt;br&gt;类型要一样" style="rounded=0;whiteSpace=wrap;html=1;" parent="1" vertex="1">
          <mxGeometry x="2359" y="-460" width="212" height="60" as="geometry" />
        </mxCell>
        <mxCell id="5pbfe2Rh54rbR8eBnrhX-6" value="" style="endArrow=classic;html=1;rounded=0;exitX=1;exitY=0.5;exitDx=0;exitDy=0;entryX=0;entryY=0.5;entryDx=0;entryDy=0;" parent="1" source="5pbfe2Rh54rbR8eBnrhX-1" target="5pbfe2Rh54rbR8eBnrhX-5" edge="1">
          <mxGeometry width="50" height="50" relative="1" as="geometry">
            <mxPoint x="2234" y="-430" as="sourcePoint" />
            <mxPoint x="2284" y="-480" as="targetPoint" />
          </mxGeometry>
        </mxCell>
        <mxCell id="5pbfe2Rh54rbR8eBnrhX-7" value="命名空间" style="rounded=1;whiteSpace=wrap;html=1;" parent="1" vertex="1">
          <mxGeometry x="1654" y="-10" width="120" height="60" as="geometry" />
        </mxCell>
        <mxCell id="5pbfe2Rh54rbR8eBnrhX-8" value="" style="endArrow=classic;html=1;rounded=0;entryX=0;entryY=0.5;entryDx=0;entryDy=0;" parent="1" target="5pbfe2Rh54rbR8eBnrhX-7" edge="1">
          <mxGeometry width="50" height="50" relative="1" as="geometry">
            <mxPoint x="870" y="150" as="sourcePoint" />
            <mxPoint x="980" y="760" as="targetPoint" />
          </mxGeometry>
        </mxCell>
        <mxCell id="5pbfe2Rh54rbR8eBnrhX-9" value="命名空间是用来组织和重用代码的编译单元" style="rounded=1;whiteSpace=wrap;html=1;" parent="1" vertex="1">
          <mxGeometry x="1898" y="-95" width="295" height="60" as="geometry" />
        </mxCell>
        <mxCell id="5pbfe2Rh54rbR8eBnrhX-10" value="" style="endArrow=classic;html=1;rounded=0;exitX=1;exitY=0.5;exitDx=0;exitDy=0;entryX=0;entryY=0.5;entryDx=0;entryDy=0;" parent="1" source="5pbfe2Rh54rbR8eBnrhX-7" target="5pbfe2Rh54rbR8eBnrhX-9" edge="1">
          <mxGeometry width="50" height="50" relative="1" as="geometry">
            <mxPoint x="1814" y="15" as="sourcePoint" />
            <mxPoint x="1864" y="-35" as="targetPoint" />
          </mxGeometry>
        </mxCell>
        <mxCell id="5pbfe2Rh54rbR8eBnrhX-11" value="解决重名现象" style="rounded=1;whiteSpace=wrap;html=1;" parent="1" vertex="1">
          <mxGeometry x="1898" y="75" width="120" height="60" as="geometry" />
        </mxCell>
        <mxCell id="5pbfe2Rh54rbR8eBnrhX-12" value="" style="endArrow=classic;html=1;rounded=0;exitX=1;exitY=0.5;exitDx=0;exitDy=0;entryX=0;entryY=0.5;entryDx=0;entryDy=0;" parent="1" source="5pbfe2Rh54rbR8eBnrhX-7" target="5pbfe2Rh54rbR8eBnrhX-11" edge="1">
          <mxGeometry width="50" height="50" relative="1" as="geometry">
            <mxPoint x="1834" y="85" as="sourcePoint" />
            <mxPoint x="1884" y="35" as="targetPoint" />
          </mxGeometry>
        </mxCell>
        <mxCell id="5pbfe2Rh54rbR8eBnrhX-13" style="edgeStyle=orthogonalEdgeStyle;rounded=0;orthogonalLoop=1;jettySize=auto;html=1;exitX=0.5;exitY=1;exitDx=0;exitDy=0;" parent="1" source="5pbfe2Rh54rbR8eBnrhX-11" target="5pbfe2Rh54rbR8eBnrhX-11" edge="1">
          <mxGeometry relative="1" as="geometry" />
        </mxCell>
        <mxCell id="5pbfe2Rh54rbR8eBnrhX-14" value="作用域符合&lt;br&gt;::" style="rounded=1;whiteSpace=wrap;html=1;" parent="1" vertex="1">
          <mxGeometry x="1894" y="225" width="120" height="60" as="geometry" />
        </mxCell>
        <mxCell id="5pbfe2Rh54rbR8eBnrhX-15" value="" style="endArrow=classic;html=1;rounded=0;exitX=1;exitY=0.5;exitDx=0;exitDy=0;entryX=0;entryY=0.5;entryDx=0;entryDy=0;" parent="1" source="5pbfe2Rh54rbR8eBnrhX-7" target="5pbfe2Rh54rbR8eBnrhX-14" edge="1">
          <mxGeometry width="50" height="50" relative="1" as="geometry">
            <mxPoint x="1784" y="175" as="sourcePoint" />
            <mxPoint x="1834" y="125" as="targetPoint" />
          </mxGeometry>
        </mxCell>
        <mxCell id="5pbfe2Rh54rbR8eBnrhX-18" value="" style="shape=image;verticalLabelPosition=bottom;labelBackgroundColor=default;verticalAlign=top;aspect=fixed;imageAspect=0;image=data:image/png,iVBORw0KGgoAAAANSUhEUgAAAVkAAAOJCAYAAAC3U1HdAAAAAXNSR0IArs4c6QAAAARnQU1BAACxjwv8YQUAAAAJcEhZcwAADsMAAA7DAcdvqGQAAMXCSURBVHhe7N0HWBRHHwbwF6SD9CK9iIAUBUHBgohdSawBS1TsvUWNNXZji0aNxsSSxBI0GmP5EhVNlNgb2EVAQJoYigiKdPHb3RsQkZMDOQT8/57nkp2Zm+WEu/fmZvZ2ZczMzF6BEEKIVMiy/xNCCJECyULWQg82A1RYgRBCiKQkCFk56HrKI+NMFisTQgiRlExAQIAwJxsaGordu3cLlW/Q1oBZm3zE/a9kyHLBO6IhTLPicWMvhS8hhIhT7/r164vOnz8PBwcH3L59m1W/ptJNH6qRT5CRzBUs9OA02xzaMulILVSBanoGspzN4da/PvIjMvDiuagPIYQQEdnCwkLk5eWxYincKNZAPRNJd1k5JgV3Zj9AqpklmrZQhmIzS9gq/odLC+OQlMjuQwghpJhsgwYN2ObbVNqpozD4KXJY+bWXeB6WjnxFeVYmhBBSFtkDBw6wzdIUoSFXYhTL46cLVjaCblwcop/J4cXBuwjPbYCWi81gYMTuQwghpJhsmzZt2OabFDw1IRtaahQrTBfcR9jfhVDRUoSyoQKyDkbTdAEhhIgh5hAuRejbA89LjmLfUg/KunJsmxBCSFnKDFkFT20oRj/FM1Z+WwFSfwqnw7cIIaQcshwoKCiwIk8O6ob5SPlbzBEHhBBCJCb79ddfY+HChazIsdCAytNn7xjFEkIIkRSdhYsQQqRIgnMXEEIIqSwKWUIIkSIKWUIIkSIKWUIIkaJaG7J6Kx1hJsMKEhL6sO2KqGi/yv4cQkjdUyuPLuBDTHn2XWSv4P4/5y7iWH15ivpJev+SKtpXuD/32PjHaM3qyvKoko+HEFI7lBOyopNzNzLLRvSW9z8/gUofKzRtwS5j8ywF95YnVfh43NJhJ2n48feTJOzKu19ZygrKopCNe8dvV9LHTgipvSQYySrCZJIB8v94v5BV8DRGY8cshP/An3Sm4ldW0ONHhDLiA40PRnGjQr6vuBFv6aB7q1yqb+nwLK//u1TkvoSQ2qla52TltBQg+gJvAZ5FZKJQUxFKQlk8Poha8mE09y4ucYGUzcolb3xQlWwrmg8t2ZdvKz1PWl7ICe1c35LtKfzPWS7ZnCsf0CUfZ9GN5msJ+XhU20i2NH5ka2PyFHdLjGSF6YSmBVUyNVGWkqH6rtEtT6IALqO9vJ9Rsq68n0EIqf3EjGS5YJ3ORl5z9fHGxcCFE3e/HpW5FF8qvKhPY9h14kasXIi68vcp84TeitB3roeUar4CrjAKZY+79Ai1NP6+79NOCCG8Mkay/HyphXD1gzD+TFx8qA5TRrIwuuTbTKF65SFihXPNcsE6RhPPthQtYHHtfprI25/Klbntwfqodyqx1Ki09D7Kx4/4Si9G8fOvwsp9qcO4HpWYLy2paB/i5m1LK+tnliZ2wYvV86PW0o+PV9SPRrKE1H1vh6y2Bqz9lZC8rig4y5gu4IN3rAHU+O1SRwkoeBrCVOkJokKUxVxKvESAS0gIozIWm0ofwlX6fjy+TpKjBcoLX0kDseT9aLqAECJmukAcPiRt0XKgLGK5cLg0+wHin7AmJu9eFmQctaDfTh0y0W9OB6j0MSkRsHLQ6lC/3IWvyuIDTJgW4B5nJBe6fIjyi2Nl3SJZH0IIqWpvh2xaDnJktWHUSXQcgIKnLgx0hU1ulKsKTd1sRO8QjVyFNh1RU7G0DCTGqqKhXR6elpgO4OdorRSTX49g+X2Zvnn5Gn7hq6ouysjPmfIB+qFHicYs7ItuZU0fEELqrjJGsrlI+CURBS1thFBo6liAtGfqsBpqAHU+QB/IwWqyKDCaOuYiMUkTDqWCMet6Bh5dK3n5Gjmo26ihflMuRIsCZ6YpNHNzy7jceNmMuY/ZRX0l+fhfE6TMeXvUXBOCnxBSfSQ4hKviVHwMUP9GUpUdhiXMXZaYay2ayyyak+WPGCgK3rIWvsQtQJUkjTnZ8lTkvoSQ2qlKQ7boa7M5t6Kr5SKLZS0slaW8+5UMO367oiPlkgEtSXCW/BnlhTshpHaTykiWEEKISAWPLiCEEFIRFLKEECJFFLKEECJF7x+y2hqwHKoltS8VEEJIbfbeIavSTh2Fwfw5YgkhhJT2jpBVhMk00Rm1xFOEhlwmkiQ80QshhHxs3gpZ0SkKG8Hc8SVyMnKQ/bhQdL6CuQZQZ/cpouCpDZWnL2gUSwghYog5TpY/N2wjmKrnIOulPHIvRZVx1qzSpzkkhBBS2jumC3Lx5GE2234bP4pVjC55fgJCCCGliZkuMEO9Ew+R9vIV/tv+AKlmlqWmC+SgbpiPlAqcE5YQQj5G7/haLb/wxYXtyQdvX8HAQgdmjZ4jjkKWEELeqZxDuOSgbFj66AI56HoqIvceBSwhhJSn4ieIsdCDTcsXiKiGs2wRQkhtV85I9m0qDrLIqOarzBJCSG1VsZDV1oBuvedVdjJuQgip6+h8soQQIkUVni4ghBAiOVktLS3wNzU1NVZFCCGkqsgEBAQI0wWhoaHYvXu3UEkIIaRq0JwsIYRIEc3JEkKIFFHIiqPfBTt2rMcP7a2wcuMP+H1EQ9ZQl9hi6fotODTWEP7zN+LU/PbQZy2EkKohJmRN0OHTtjB4a7uIJloMmI4pPW1Z+X2J9jd//nzM9C/9syRlgm7j5mP+lJ5cdLwvXYyZ0Amq5zZim/1INE/cDd+folib9PkPGonAhZ9igiKrqAyrVti1YAx+62MBcbtpNXYgWjzZh9Fx/TBM5wrGLj2NZNZGCKkaNWQkm46re9di6cYTiK70GcATcHzvCUSKPzujxEx7DYRH3A/wPe+J6fX/QocVF1lL9dj561GcTX3PqfLoixhyMgYvWfEtToMwRusMBi19heWeqRg19Vc8YE2EkKrz1sKXZosBGNHFGiqsXCQ37gx27jyLJFaWCs0W+KyLEs7tq+TP4foP8DPE9a1HEM6qPgiP1lj07DIWhYqNuHIYYu4EV2Rs/wvf57KqyvDoggCjcAw/GIP32Q0hpPLeGsmmX92LtdyI8uaV/Vi6dKkwuuS3V0s7YOsQf2sTyHH/lxEVCSEfsbIP4TLpgE+t7uLPs1ysltwW2rph3DA36OIZbu/fgCNFQ0Z+FDmiC/QjTyPCqD3cdLm63Dic2bkTRV3fGCWXahO8NZLl52pHoItpKrsvP+86DG4Kt7F/Axutsp9rze00NykGT7jHdb54JMvuzz8WbiwXd2Yndr7xAyuJGyH+1cVCCFJezJlfMO7fPLwqVc/j28Zybfw864CGSfhz5Z/c6NQQ8yZ8Ak/5CKzbdAYnCvh7sjpd7n0v4xGiuEFw6FZ+JGuP9V95wq7ecwT/vg/HLPvgKzdtyGaElegrhjCSTUK4YXO04veLRPbzRc2EEOmrp6GhsYhtv6ZuBVutZETEvnhzm/csEsFnzyJa1QZGT28j/ImoGjmPkPDSGG6tGyHjr9XYepC7j7obmqkn4hbflwvnYZ+q4+bP32H3sVJtRZSMYW8th7h7sRDV5uDR3Xio2lkhP+IWYl88Q2RkDoxt6+NxSDgXqFyIDuuMwhOin3evngNaWeYj4grfxgd0L2heXCe0nT0bC6PufnB4fuX1Y64U7qO8tzoObz6IxUEh+DVeEZ0tgKCwdBQkRGHPmRDUM7VG7qlfMeLANfwVI5oyuHX7McwdDZFzPQLXXmbi3LUcuDVXRWRwLKIK+cWu/nCI2oX+O6/i12Rd9HNXwaML/H1TEHg2Eeaa2fj2/GNEPXgKC7NCHPz57LsDlmdijeGtzJFyVPRYotWaoqNBJI6yx0QIkb63pgv40eb0Ya3g7DVaWO2fz7YlXfV/fjvw9ei2BBMnCyiEXy4euSYc/+n9R5UmTjDKuoHL7OelR0QhsWjhS9MGDY0M0MSP+zfw/475/IhWEZoGlTt24bXH+DfNAFPmsZX76IuYfCjmPa/Yaw8XrQc4dJ6dCD36IfdGUPIDxmMEFRjiS/t6gJUl5OMulx+wTMadi1ga+hL0jRNCPowy52R/OnETV/YvFeZkN7Lt95+TzUP603S2XU3y4nBmq+jfIbqtrpLpgotHf0f3xVvwXW5zHFo4Bj+2U5D6/OvF+xkwb9EEo1tpIuUyXZWCkNrirZCVloQ7iVBx8Xh9DCs//9pPwmNiFTShpSnaNGnpCmtl0TYynyBL1wUebKdvtKVHICpVFy5Fjfz0wWf90PZ9B7JWrbCht+jYUyFsd9+BioUD6otaSzHEvJ7OJdrUYNiQG41yWvk4wEa0yXmKlEIb9G7DLvXj0QQtdUvFNjdiPl3gij4Kj7GrxJxqKx9fHHvfY2oJIVJT5pysrp0t6sdFgJ8uLbkt4Be+pgxAayNNGDh4wctFC0n8HCgXmr17tYCZiSm0kq4gXLkbPvexhaGhHhB5C7GPI/GfdnsMGtANXl5cP2cFhB75H0KF/fILVFMwwNsaejoWcOXaXbSScEWYPH2GHL1m6NpJ1K9hZgTiNZuiqT7Xfus27sZro/2gAehWoq2FDf8jwxFxNx7a7QdhQDfu53k5QyH0CP4n+oGV97Q+uvRtj0nt3TCoHXdrqoL7f59GYMrrD+S3VEwwrUd7DGlnhJRzRW2ZeKnfGH6dWnP1bmj65CHijRujjfYT/HU/AUHXctBxUE9M9eb2qfgY1/It0MG9PlLYnK1ov8qwjgrByRI/y9TGAW2NCvDgPD9/yyoF9lg/tCnMGhigUUooguq3xNddLWBiYQCNy6XvSwiRFjpBTC3i/6kn/jt+TuL5WELIh1dt0wWk8kRfsx2Dls+vUMASUsvQSJYQQqSIRrKEECJFFLKEECJFFLKEECJFFLKEECJFFLK1jUpvzNr8HaZ2YWVCSI1GV6v9ANymTEfjn9ZidyarkJg8mo+YhMaXv8Wue6yKEFKjyc6bNw+LFy9mRSJVvksRsH8/ZrY2QPE3aivqVRqSKGAJqTVkCwsLkZdHJxypFr/Px+d+q3EhhX1PlhBS59GcLCGESJFMixYtXiUnJ+Pzzz8X5mTl3dfDqYshnpy+hfrt20KNu1NB3P9wd8dm0TlTTefAcZiXUM/Lub0WNw//LerXTgOZT9ShbVSAx0X9n11D6Pr5eMbdV959HbfvxhDONVWiXmA6l9uv6OfxRPsNg+7A9bA2TUZilCqM7PkLVufi6ZnZCD9zX7ifSvddaOJWdCHrDDze3x+xYUVfYmsG4/HLYSpcGeH1YxUxFe3bWlUovdlWDt8l2ONr9/rKCMeGY9YOO0z+fgZay9/AlZSmcG/Et6Yj5PtJWHWm5KUI3DDl+8+QMWs2dlR4TlYFvWeMRtaa9TjBagghNZvsgQMH2KZI/pW1iIuUg6GbMuKWdMPlJXPxWM4JGsIpArlg8myE5/u7cvX8bS5S1NtCHTJcv11Ieq4NmQdfIeTEY+gI/eciPlMXynxfLkStGz9AqNCvK0Iu1Yfl0PFQ4nfL79ddGylb2H6/24MMxUZcWzxS93yN+OeW0C7Yzdr+wMvmi2Bux3XTHAIj09jifV7+5RYU7ToKexSF6DzoJa4t3memAf9YRVS6L4DOo69EbUtGIUFlOGy9GrPWd+FCsulzbBnsBz8/7rb6AvL1XLk3jmBsmPAHwtVcYfBgNGu7B7NxSzG06J3jvXABO3MFzO9QwBJSm8i2adOGbZb0DI8D+VFm6dMa8KE3HLEvuFHngkB4LOBGidqsiZeXiPQw0QgzN+bs61EqR8XJDhpmPeAs9AuEaxc7KGsacuHEnzc1HhnxcjAeEwg3PnjTd+HhPjZy5uU9xONL/4i204OQnlgIJQMuELn7RW6ZjwJuNMvv04MbCRdfZVfTG5q6yVw/Njpl9xU9pmbQsjCBltc6Ub8F27gRrRaUtUyE1ncLxoUUc4zbvR9bZ3lBMXgD5n1z5vXVYDNCcHQvG6IGX0DEEw0YuFbFyV6zcGj1HMQ6TQUdvUVI7VHBOVl+dHgAHn35USo/AuRGqmmsSQL8R3LRyJHdhOkCUZDnX5mK61zdrfs2sOeCz7lXJ6H+nbiRrPWMQNgosFHuL2e5KCohNxXZYi+EwL2RFI/IRTdJpwuCN0xEf26kujXHDzv378dqbqhaPVemzUdCWjVfXYIQ8l5kOVBQYGfkL48wOkzBw71Fc6xDYFByJPsOWXfCUGDbB8WX2DKdC5uiIOXC0rKfaOpACNtSH+2hYARNO/ZR3nQwGpimCyNmeVsXqKb+D2FCOPJTGa6vR7L8iPe5NQxLTAGodP9eNM2A63gakwM9j6LpiqI2CaLSbQqWfcmNYLnN4A0T0H/1BajafQa1oq4aDeHhwUauvj3gLh+Ny5fp8rCEfKze+jKCaOHLDgrCwtQC7qP4TmFhqWjxS1Yoi5KyIO40HuW5w9w0GXEhuWjQyg6Ftw8ixagPTOs/LFFXtDgmbuHrzQWqNxe3uLaRk6DKRa62Eb9IxS9u9UNsGH+/kv24Plf+xUunLtDkgldYqONHuiMHQpclb9UsfPliSYAv7ORZ8Y3FLV8s/cEVcrBAQx3+Q0IMjg2f+XqBiz9O1tcWRV3TQ77HpFUlphrKRV9GIKS2qQXnk+VDdhQK/hyPpKQa/lCFkLXCP1NX4Y0DCqqQfPNRWDzMCclHJmM9rYARUuPV8JAtMdosfchXjcMfmjUDrfW4EWzMMQyfuQMVPkKLEFLn0JURCCFEiugbX4QQIkUUsoQQIkUUsoQQIkViQ1ZZWRndunVjJUIIIZUhNmRlZGSgolJ8aH/1sFsK5xnroatZPd+fqnb+Y7H58Gr8wN9+6Y+mrJoQUnfRdEG16YgvewPHe8/EuF7c7V9NjF1TdDIbQkhdJTZk+RN5BwcHs1I1CZuPm2umIjW9gkeVGYyHWcdmrFBD+VvDKjISf7Eidp5FsI41PmVFQkjdJDZkCwoKEBsby0o1m5KdE1QlPP3C+3HAkMWbsHnz5lK35RjVvPh7thWgBf3WbJMQUifVkC8jNIbB0JWwNFNEXuQe3NmzC/msRb3XPthbP0bsHUUYu1sKJ8rODJ6Lu8euCyNY26E9oFXiTIKl+4vVdBw2zPaGIbvY1rNbP2Ha1yek942y1v2x/EtNXOr9I/7kfuNN58zBWHcg+JsV+OkCu49JD8yY5obkrQuwSzg3AyGkthMbsvXq1YOWlhZSU1NZTTXgQtPKMxPxB0qGZCeYT50OnWQWnnywfqqJ+O3Li09rqOT1AyxVt+E+H7wS+nTBJjS5Mgdfn3jOlZpi3NKuiF69CkJRSkTBqiVsP71yElE2zYHtJUKWEFLniA1Z/sgC/hCuP/74g9VUA3EhO8YHL/Z9IZqrraKQFZQczT67hZ+mfY0T7xzK8tMF4+DBn5/gDem48ctCbLtW7vi5hI748rA1wnpxI1tWQwipez7aows+XbAL+ydp49ho/jIyXyPocQHeuhDEW+5h18KJGD9+fKnb3AoGLIdfCHuajjhWJITUTXUuZNW7LISuJiuI9SlcrFNwch43cuWnBz7thVaGcty4XtQqHfYY8ctqfOnP/xBuu50Vov/9DbdEjYSQOqqehobGIrb9lsLCQqSkpLCSNPELXz/BqYMDVPWcYOTVG0o5l5D26BnUe62AVUMTqOnIIvVOHvR8x8LQpCFUVUOR/OCx0Lsgxxw6XcajUYdBUP7vB8TcEdWLF4H0Bt0xZPxw9PP1ha/2TRxNccOAkW2gcfYkrr9gd6tSKSi0d0Onjp/ik/7OUL69A0s3lfrd8gtfiz6HdWwQblXjVDghRHroVIc1ijOGz2iCi2t2gQ4uIKRuoJAlhBApEjsny19gsdrPXUAIIXWM2JBVUlKis3ARQsh7+mgP4SKEkOpAIUsIIVIkduGLn5Plpwyysoq+V0UIIaSixI5k+WNkKWA/HJMeEzG+qwEr1QVO8J8+Aq7shDyEfCzqyHQBfxKZP2DtbsrKb+PP5uWxYBeMxd/lbU59EHBqDU6fXoPAX3zQhFW/L6cvB2Dau3bmPBxDG0bij8AkVsGrD4NhR+Hk04qVa5s72HmyAL2+6InKnBSSkNpKbMgqKirCzc2NlWq/Z4cX4WFcHitJwhTzZ5gi5IsZaD/oCCLVrdHxPVPWaMhIHOECe0MHfVZTFmcM71iAA+sCUTJi64Q7OzH/XkNM7kkxSz4eYkOWP9Whubk5K9V0fyN2fV9EXoln5SpgZAED+ad4cIfbTjyHiX034NvboqbKSty1HT3bb0DQO9LTpEcbKN09UcY3vp4jiRtN3zl6kZUlpQj1Hgugy0of3PH7KHQbQtMG5KNBRxfUKCZoZqOBzJgqHMPKtYOWmTa3UVMuTnkcYWkWcHamlCUfB7FHF/BHFri7u+PMmTOsRlpKXxXhMYymToehejLifxmCR/zglL+KrV9zKAn3L1HP4c8l6+hlCbmsMERu568PJqoXeb1vZCUg7Tnw4tjI4r5l08SQTVMx1F6NlTl58fhrJjeSTfXEph97wvpJEGYOO4rbTn2wZ0MrqIbsQa+Z0Ri8ketnGo0/gg3Q15tftMpD7F8/Yti3JU9oaIr5O/vgxdqyRsbOGD7fG4lb16HkdKyM/TI0+cwNyq+SkRAwBAnRrEFxAmxn+UDhxp94ZtUThhpc3Uvu9/D1F0iFAtR774S9U4lTkpXuXyY1NPMbie7GcQi6qwNvd/7fkY/EC7vxc9AzUZvlM1zY/TOCEvXRadRouKuF4vC6k1Dg2jpppSJZ2QLGMqHF/V+EHsa6g3dFu+c4+S9Bl/SlWHPk7dNDdpu2CZ4Zv2D+TyF4yeoIqc3EnoWr+q7xlYoXN5+gnp02Ug+vQmZONDLSDSGb8B0SQp+JTtLd3xHpuz/D/T9/RUJSMzTs0xMFoYHIyuEeZ+xRJJ4JQb6pI15F/SPUFVHv9T2Mnn2N69u/QUKUCXQ9zJF35xCev/PE3Dm4dexf7Pw7G81b5eHXnt9g3q9XcIkPvedxOHZXDR1bvsSlIw+QlHwfl16ZwdvgMQ7+/RC3br5E80+90Czzf+g2aCd2XtdAn146iObvK9o5RwNevRsj/xLb5xsawIV7w3gechmRJc8ElnIaSWd+xzNtTygmBeLZU1b/8hrSZdrAwt0KGQf6IvQwdx/dgdDROIi0RwXIDTuAhAspqOeghaRvBiPi7KHXfcXKw+PYPDRo1gqNc/7B6i0HcDZMBc7u2ki+EYGIe9FQtLFBYdQNxDx/geiITDRorImUkFu4lVIf9i21Eb33J9zV8kZr+bNYfSgDjZsoc31jUHTRCQNnb1jnnMXF8EJW81rkpWM4deNx+af2JaSWqCHTBX8jKUwRxt2HQJ4ffdoUIJXNr/IXSVSK/wfJ8exlF7YHj1MNoGlb3mECnaDFhd9/F9nVEpKCkJ5UkYWvSsq8je1fVvAKDcVSkZqtAn3RFWokVIgX138sZ3RaCdmh+LvE6FNSBSkPEZ7Ib2UjNqLs/ibaMnia8HbAElIX1Zg52ZywO8gx7QiTHpOhXXCm+NIyH5cEXI/IgJpFXTo+trRusNOOwU1u1E/Ix0BsyPJn4Orbty8rVYOkzXgcrsiNYnORcvEGq3wdvvqmbOHGbiAMdZOQHl7ekQQJyMm1RINWzURFvp9Z1Vw3XF5LB6LjLkwxoqsdVIXtqpHwv/PIcewCO1auUorjYFYVx9nKaUCLX0vj6Ld0hU1FTtbWrTFkg3chhDKWfCTEzsnKy8ujUaNGuH//PquRvlw0hYbaPSReu8V9CGZeXMOTJ83QcNBMWHgNgomDPB7/OgZJyaJmfuHL2b8/dHQbQNt9EPSN+Sso8P1Fc73KPvPRuDPXzyAFyakmMGnhgRw2nyuO0/wv8dt0V+ipGaClf2f0cUzFb3+zqy0kZ8L+054YOLEz/P0dkH33ITRbuKFZ2i0YDhuITpamcBTuL4ev1vnC2cQYjXUe4MilDOE42V/XfQJbDQ3YdC2132L/4UaWK/w7Z+MSuzwCv/DVdNx0GBnoQr3JIBg7mCPj2jnkKU6AzeceUDdszKXzITw3XAw7b2toWLoh5xz3b+Q7FybglfFg2PqNhElL7r3sp23lfEpQQ7NeveFhZgxT3TRc5v78nQb2RGNDQxjUe4gbMf8hU8cJXTt2R9u2bWGXE4UYNSc4G2Ujz8oVrhaGUHypiIZuNjBRV4a8kT0c+bq0y7if3A3Tej3Dxl9CX/99S+EXvobbJ+FfmpcldUTNulotKeY8/Ct4J27Duje+9VWbOcF/aRekL1mDMg4qKObkPx0t7q7HTzTUJXWE2JCVk5ODsbFxNR1hQAghdRNdfoYQQqSIvvFFCCFSJDZk+emC2nPuAkIIqZnEhqyCgkKdOgsXIYR8CDRdQAghUiQ2ZF+9ekVXRiCEkPdERxcQQogU0XQBIYRIEYUsIYRIkdiQ5U/a7eXlxUqEEEIqQ2zIysrKQle3xlwZihBCaiWaLiCEECkSG7L5+fnVeppDQgipi+gQLkIIkSKaLiCEECl658IXf+JuQgghlSc2ZPlDuPgrIxBCCKk8mi4ghBApopAlhBApEnt0AT8ny08Z0Jm4CCGk8sSOZAsLCylgCSHkPdF0ASGESJHYkFVUVKTLz5D3Yz0ICzevwEhXVibkIyQ2ZOvVq0cXUqwrFL0w7QtfVqgIRXhN/wKV6QnooXMnTdxcOQfbQ1gVIR8h2RUrVoC/DR48mFWRukMNQ1fvx/7dE+CmzaokpDZ0Nfbv340JrlxHGRlWW0G5T5AQx7YJ+UjJzps3D4sXL2bF1/iFr9TUVFYitVMmdsz0w+DvQ5DOaiSVuWMm/AZ/j5AMVkEIqRRZPkzz8vJY8bWcnBycOXOGlQghhFSGTIsWLV4lJyfj888/x+7du1l1dWoMg6ErYalyBdGJTWHVRIOre4HUE1MReSVeuId6r32wF+p5yYj/ZQgexfP9VsBY7hFydRqi/vOzxf0zg+fi7rHr3H3Zvs0UhZ6v60Xe3q8/HuWNg+3QHlCNv4x0fQ/oq3NNWWGI3D4VqcJwsBPMp06HIV/PSz2L25uXo/hgN7ulcPZrDiWhUPRYhQJgMF7Yt5bwcEq1vRP/sf9ndLdgxYJw/D5wPv7nNQvfTXBBwZUQvHBvDr65MOUC1kzcgOASRz8rcvdb1zEa4+f/zmokpOiFWes7Inr8Avz+qqIna7PGoBntcH/NdtCULPmYyR44cIBtfij3kXT8BJ7Wbwv9vFW4vKQrLu+/B8WG3pDnm7lgMtS9hdt8vdAWC1WnZqJ+l2+jUDMfSVu+wMMsd1H//dfwStNR6Kveaybq358o6rfkC6Tofwlrd1N+r8J+deWOIoTt9+aZZCgYmQBJmxF+5BoKra2Q+wdru6YIi4FzwZ8uR8mrD1Qi5rJ9dkVoojG02C6FEO1pjpRfivaZCXXhsfK4cO5lgydbuon6brkMtd7roavJmt9B0WscGj1ajX5+fvDzG4zvb8jCyA3IPbMK04/FQs9VHddY2w9xDpi2pHJLVVWHC9hFI6AURAFLiGybNm3Y5pv4M3D17duXlarBE24kWmKUWYwPve3LIdfrN3gsCIQHN0pUYE28/MTryBBGmCl4eofvXzTi6gQtC0Podtkm6rdgHTei1YKSjp6oOSkIL9T6wnXBH0Lw5pyZgYds5MzLj/wHyayYE3YHz+X0ocIFYs6Zcbh/TIcbzfL7DORGwvVFd+Io2TlBKb5EvzPjufuyf5NdW2gZ2MF68nHR4xnDjWg1taH4urtYuZev4pnDTOz77XtMccvFmW/mYUMwa0QhUq4cgWiMmovLl6PwTNsIH/bgu0j8uugn5HiPBB29RT52Nf/LCPzocFYgzPJWi0aA3Ej17RlkcfiP5KJRZdHt9XQBNxLe0ZOr+wrPG2/igm8XjE3LX0VX8voBbgsGo4CNckNvP2ctInnpd5HPtt/CTy2UeCyXl0g4XZB7BqtGcyNV//1QGr0f+/csreRhVdUpA8lpL9g2IR+vGh+yotHhHoQXzbF6NHljJCve33gaowgDzyGiaQeOeq/vuSAVbSt5fQNLYepAFLY3z7zgPtq7iBo58kbNoME+yqu39IJqKj9ibgwNS02kn/hKFI78VIbt66EoP+IttB5SYgqgE8yHiKYZEHYWTxVcYeRuJrS80fZOivD68mtuBMttCmE7GN/f0kWT4pSVhY5NazZyVcMAHxe8jLiA4oEuIeSDkrGwsHiloKAAX1/fNxa+5OTkYGxsjNjYWFYjLa8Xp0QLU/xHcX5hqWjxy67EQhNXd/EK6rm2h2r8Cfyn0A5mZhmIPx0LvfbNIRtZoq54cUzMwpfdEjj7tWALVBxhcesLpKa/EhavHNpoA/yCGt+15OJWyYUtrk/sHUUYu+tzwfsF91jjhJGuo5cl5Pj2Klr44o9Z/bl41Ystbk3YIASp2tAV+MZWBvUaWoHP9oLw3/H5gt8hWqcqtWBWmIILayaUmGoQ782fWYiUC2swQZKOxfTQeVw/KB/dhCN0rCz5iMkEBAQIL8fQ0NAPdHRBDcSHbLMHiNizS/xH/xqCD9lVGn9UMACrh17nKZjZqwHCf6JvfZGPF11IsbQSo83Sh3zVNPyhWd9NcIUWChD++0BIeoQW328j1694VqOEkqNkQsj7Exuy1TddQAghdZfYhS9+npbOwkUIIe+n5h/CRQghtZjYkH316hVdGYEQQt5TjVr4onlgQkhdU6OmC2ge+ENqBL8po9G26MQ3dYCSxyh88XljViLkw6A52cpyXQO3L1ZCs/jbDKX1g9XMQHiMmFr8jTNJdFzxFU6fXsPdluCHUew8C+/NAXO+9oYlK5XFc/zn0L3xG84+YxU8/ZlwmLMVDYwredLuDyzn8m5cUhuAyR1ZBSEfgNiQ5S8H7uXlxUrVo27NA+9D9L5TeF7IipLoOBDDNC9gRPsZGH8wGfrNHN8ZjOUzxMTty7jAHobW77oygud4uKf+iM1vJGxdkIPLW9bikfNkUM6SD0VsyMrKykJXV5eVqkd2djaOHz/OSjVcyAwEr5uN9BxWrgJ2dtp4mRKPh9x22KZN6DsuSNiuvMfYNPIrtF9+/R1XRmgEv2YFuBr4HyuXkLwa91aMxn+PKjhtr9YPZt16sMKHloF/HiqhNU0bkA+Epgs+do1cYKOcjogqHMTK2TaHuior1AAZ/0Qh27oZKGbJh1BPQ0NjEdt+C39pmpSUFFaqQ8xnwmHifDT07gH5pyeQbvI13EZNg5m1LpJuXAb/CV+73xE07TsUJl6DYFKiHmgOozFb4ODjD12950gJDS8+g62geN+DoKvDt6Qh9WZRXzHsOmP7rnEY5KQJdTM3+Pt3hq9HPi4djUGDiROxa+UnaKNwF8euZwlzttvntULDiPMIUuuMbTvHYbDdKzSbNB7zxnSGv68VFC4H4/pTtm+elRP62GciiNvfWyNaBy+014zG2WuxyGVVgD7379/J/fuHw5D7tz/l/u0FrEWxyy9o7ueDVwpesB48DRbc70df7xkec78HfgRrNWktGjnoQ0GvufC7K92/TDot8fmEoWir9RL6nf3Rr0tbtG1hivzwO0hQEbV1scxH+J0EZFv5YMKEfmhRPwHX0uy4tv5wt7JH+x7d4VK/qL8T6idcw4Oi34GMBhy9GqHg3yuIZlXFNPpizho/mMecwR26pB2RArEh+yEClp8Hbt26tfQP4cq4gJSsptAqOIrIoNt49fgkctSskXJkJbK4NFDlgsRO9zKur5+IuDO/IstmDho1zmaBmojnIXuREGMEtQZPkB5WMmS5kBnbHM8290PYyV/x3OAzGGkk4b/igBYjNQr/CziJK/Vt0PTJb+g19DfsYYGYevUqkuyawf7pLRzlQjb61APU97SH6o1LCLoZhQfaNvi0iwUSli7A0K9P4pGTFzpoRQr3LfaukDVvjnYGybj0Rsi+QPa9/UgIyYeCVX28uPs6JF9GhaHQoT+MNa4jlPv9xHD3UW7ZHK+CTyEn7x6eXvoV/2U6Q73gAK7/MB+J5QUsLzsBia9M0byVBVIPrcVPR84iQcsdTVRicSciAnf+qw9702yE8SH79AGi803RSDkB12/dwQstF7go3cYvvz2ESScX5Py5FkEFTdGoHtc3IVu0fzkTuHka42lZIZt7H+ePU8AS6alR0wXVOg8csh9PdPrDrIm6MPpUe7GVza82h4aFElKu/Vx8Bq60yxeQb9QS9cUeScC4Nodq1F9IYVd4fRF2Hy8qsvBVSannD2DBJVaoqP9SUaDeQILz2paQH4f4wA1gEVZl0m8cx9G3UrA8uXgcHYEn/GZ6DO6X1V/RGBovn6CiU8uEVIV3Lnzxl6Cpu64hIyYHes1nwqyrFfJuJLL6j8yDG4jI1oRNHTo+tjSNjg2hHHkd91mZkOr0zkO4unXrxkrVIz8/H/fvV99L4cWJQKTqukH7yfHi0efr8B1efHyrtkdryCdewvPyjiRITUah7SfQYxfA5fvVr5LPCsrQMeV2yh+u2tEb7a0kuzaEZB5g/3U5tOjagJWrlmL7hWhgzArvQVFTG6JfqxU8mllCdBp2SWigo2UOLgRQxJIPQ+ycrLy8PBo1alStoVf988D3IGPSBQj/HmlJr2ck86OOINtmDpzYwpdO7j+4FbCTzS2yha/W1lAxaA5jL7Z4xvcX5nq9YDd4Gsy4fnKPg5Fv2Q4NDMpYIHuDA1YcnIUxLkULX81EC1sJotZoGRMM+PxTjPHvDP/Gabj5XwO0aqeLiDvGmDjBFeYNLUT3txuINQNsYNKwARQuBeN6On+c7Gys7GGK+ro26Flqv8XirqGe11h4xF/EvUy+gi18feoONR1rNPDyQ325UKQ+TIJilzWwszdBfQN+QSsa6r25TwJm5lAvWvziFD7XglqH0bDtxP3uMv/EgyuierF0WqJPj2YwNeX2yy9YaflgYOdGMDTSFS1+Jb6EfovO6MwviLU1QUbEf9BzdoLWMzk0cm8CSz05vFRrDJdGhlBTUIGpk51Ql3DtAQr7ToJn7DrsFTcNQQtfRMrEnruAnyrgR7J//PEHqyF1myfGL3LC3W83v/mtr1pMyWMM5raIwoLv/mE1ZVDywKhxDXF+XQBNJxCpEBuy/JwsP2VQnd/A+hA/kxBCpEnsjCH/0b26w+5DzAMTQog01ahDuAghpK4RO12gqKgIJycnBAfTJfUIIaSyxI5k69WrB3Nzc1YihBBSGTVjusB1JFZs/gZTOlfV+VMJIaRmeOfCV2pqNR04GLIdc1aex8uGLqCYJYTUJWJDNicnB2fOnGGlahCXgCevvw9ACCF1Ah1dQAghUkQhSwghUiQ2ZPmv1fbt25eVqkMKslQawoUmZQkhdUgNGsnGISHHDL0mDII1qyGEkNquBoWsK1w07+HbRb8iktUQQkhtJzZk8/Lyqv3bXi/SklF8WldCCKkDxIZsQUGB9K+1RQghdVzNmS4wM4GO5Ke7J4SQWkFsyMrJyVXfuQv4r9XOboN6UTdQBy9ATgj5iNGVEQghRIpq0NEFhBBS98hqaWmBv6mpqbEqkVevXtFlYAgh5D3JBAQECNMFoaGh2L17t1BJCCGkaoidkyWEEPL+aE6WEEKkqIyQtcagRZuxbmZPmLEaQgghlVNGyEbi10ULcfy5KVwoZQkh5L2ImS5IQXQqHVlACCHvi+ZkCSFEiihkCSFEisSGbEaGIkxpUpYQQt6L2JBNiX4OnS7jMNKVVRBCCKkwsSFr7dEAj36ag+0hrIIQQkiFiZ+TzU1DCp13kBBC3gstfBFCiBSJCVk9WOmqsG1CCCGVVUbI8l+rXYxu9eNxI45VEUIIqRQ6CxchhEiR2JN2E0IIeX900m5CCJEimi4ghBApokO4CCFEiihkCSFEiihkCSFEiihkCSFEiihkCSFEiihkCSFEiihkCSFEiihkCSFEiihkCSFEiihkCSFEiihkCSFEiihkCSFEiihkCSFEiihkCSFEiihkCSFEiihkCSFEiihkCSFEiihkCSFEiihkCSFEiihkJaHdAWMn9YEFK9YFjfymYHRbdVYihEiLVEJWpfsuuA0dDyVWfovpXDguCIRzr06sQhLqmP7LGpw+zd3+/hILWrHq96XfFcsXNGKFsljg8zHNkfznQcSwGoH7erSYsgzqcqxcyzzYfwzpnuPh14BVEEKkQnbFihXgb4MHD2ZV1SB+OcJPhCGfFSWhP80fbg+3oH37r/DdLQU07tgIMqytUtRcseYQF9i/ecOSVZXF4vO+UD29EgffSNi64AH2f30BuoP8QDlLiPTIzps3D4sXL2bFqpF1bAiCd2xGDiu/PyW0MlTFk9gH3HYODs/4GgOWPMB7Xcs8MwQzes9A/6MJrKIM2h3QVfshTl5h5ZKuTMXVDV/hWQErS8pqLsza1meFD+0c7mTZow9NGxAiNbKFhYXIy8tjRVKStos99HMfvTlN8J7UGttCqQbNhJ+7kwx9R2dQzBIiHfVsbW0XvXjxAk2aNMHt27ch774eziOmwtyjNfIjj+GV1y64DhgDXa0k/BcWzXVpBuPxv8Ch2yCYeA0qUc/RHALriatg09EXqrjNjTxTRPWMvPs6bt9fwNzLF/XluCFg7j2kFPUVQ63XEOzbPABeRirQc+4Mf39udGkeiz/OZKHXN3OxeWYLmEddxJl4fs72a3w9zhz49TqihH794KmmBN9VYzDFvzMGda2PqD/uI57tm6fayh3dFCK5/aWxmtcMWnVA42eXcf5+OqvhtYLJ+B9h320IdLRTkBwWxeoB3YF/oUl7e+TpD4Vj/zEw5X4/qjJH8CSGexOzmgenifNgYqQGZXM/4XdXun9Z5Ox6YsLYPmj4Uhau/oPxadu28HRQRUJwJDKFts/gqpqA4Mh0KLb1x5zB3WGccx5h9bm2MR1gY+mBHp92gHFR/9bGyDl/F4/Y/qFoiTYuarhz/h4yWRUhpOrIHjhwgG2K5HMfg8OCE/D08ndISnrFffRfj9ib/0PY4b+5VlMuSOZCL3EtLi/pyt3mIsVoImy97EWd03chck1XhJy4j/zSH+ZN58K2ZSYihX4TkVSgBXnW9C6Zh3ehNz8PG5KK0J0z0L79LGGqQJg2+HI9jsaJ7gc8w9pJexGSISplHt6PnddzYP+pEf7twPdbgsAsK3R87wWzi0jY7IPLv55DVql/Yuqe35Gq5gZDuQBc5f+dv56FgvkQ1OMbo7/GnaVdcTckCWlnfYXf361DJ8qd8igIO4q/72SiYVtj3F+2DMuWfYNzLyxgZ8m3HcHWs6/fMnLPBuDAHdEvoCAsELcStFA/5S+sPBAKXaH/Nzj7SBM675qEJoRUKdk2bdqwzdeyLp7Fy6aTYWAgw40+e0Amgs2vanpDUzcFjy/xgcu7juSQh1CybCf+SAJGxckK+Tf2cFHIi0dGVHyFFr4qJw+he7dhVyUnb5/9lwkFXQNWklBGMB7+WX54VsxLRJ3ai6usJLFXaYgJeyhsvoyJKrt/A13IPfsPWaxICKlaZc8OpgchPVUfhu0Wwty5HjLDWP1HJu1GKJIVjevU8bGleTrpI/nuTfbmRwipamKWYOKRei4EBbYuqBdWNPrkCOGrB8OWRce3NoO+qyVyHv5b7pEE+U8yoeoykC2w8P3sJJouKJesFvTZYa76Y9qgmYZou0qknUJgmiU6u7NyFdP9dFEVHGcrA01NPdGmYiu4O1XkF+AJJ5VQHDxLEUuItNTT0tJapKCgAAcHB2Hhq9izF5BvZIOsizvw4gWr4+I2604k6rWfzxa+OkAxcgPunWDHOLGFL+vGDaBq0RUmwuLZUaF/4aNAZGgPheOAsVw/N+RGxEC5aRcudN9eIHuDvg9++XMEuhQtfA0QLWzdEhpzEWXtiHG+vvD374weryJxW8kJHTyzcVihDRb3soSpPXf/gOt4PH0s5rYwgqkDW/zij5PdNx2TnDShZuEm2i93P9F+X0u/8xh2A/ygcjGELRaxhS8PC6gYtOT+LZ+gXsqfyEh5Cd2BX8PE2ARqmvyClgFMBnwOXSM7qBQtfnHyXtrD6JMvYdVuEGQefIHE6Hcf2SFn9yn6eVvA0EK0YJXadhAGNmkAQ2PR4lfqfxpo+El7YUGsrcdLxNyTQ2P3hshPNUezlhYwU30JmLvDzlwT9WGAxk35uhycv/sInuN9UW/fdlyhFS9CpEYmICBAmD4MDQ3F7t27hUpSisXnmNM/G3tXlvrWVy3WyO8r9MV2rNz/H6shhEiDjJmZWdWu0RBCCClGJ4ghhBApopAlhBApopAlhBApopAlhBApopAlhBApKj9krQdh0eYVGOnKyoQQQiRWTsjqoXMnTdxYOQfbQ1gVIYQQiZU/ks19goTiM10RQgipCJqTJYQQKaKQJYQQKSonZDWgr63KtgkhhFTUO0LWGoMWjoBS0HbQmhchhFTOO0I2Er8u/gk53iNBR28RQkjllDNdkIHktOKTyRJCCKkgWvgihBApKj9kFXVgYsa2CSGEVEg5IZuCG1H10GY2fa2WEEIqg66MQAghUkRzsoQQIkUUsoQQIkUUsoQQIkUUsoQQIkX1NDQ0FrHtN8jJycHU1BQZGRmshlSF7tO/QUAPNWwz7IOrEx3w6M9gPGBttYlNWx/8NLQ9hrZzwyB3Pcjfj8TNbFGb5WczcXiaM55GN8G3a31gfvcszqeJ2kgTrNm8DCP1T6NB301Y5v4EB84noMC8FXZP7Y4x/O+zZQOoRjxASKnvAXWfsQYBn6piey1/7nxsxI5kFRQU4ObmxkofN+0OYzGpjwUrlWLxOWaMdmeFcrQci8m2UVg0B9jTE9g/+kccY00fjhbG9GyOFqwkuVyEn9yDrou3oOvqQPxSFKKG3bG4swJOrPoHbcY54OG2r7FCTBI4+U/HCNd6rFRKt2mY3lOeFWo22wFTMaq1mBMpeU/E9M90WAHoMGUgnOJ+xtDMCRigdAq+Ky9BeG+KvYjB/O+Suy0IeSbc9w3cc2eKTaTw3AnoUdnnjjyaj5iGIQ6sWIpK7xmY2oUVpM4Ss3atxOkjw9Cv6NfjNwx/nl6D06enYbYVq6sDaLqgHNodJmF682T8eTCG1ZTABeyCcao4t/UKq3iXZviOe3F8N+ZH2K9ojOu+y7GGtXwo3r0GIHChH3qbVlWY6WPCiMa4/80y/Nu9L5T3TcOks2UfIejkvxT95f7FjpCXrKYELmA3OUZh45F8VlFz2Q6YjyEa17DnQhlfP+cC9tuW/2HHgSeistsIDFc8gl4rtfGDSwy6fbkfkn1OFD13NnDBKjx3+lXmucMF7KhF+CT/BHbdY1UlqPSehZXmd7D+BKuQuodYNeQQbrNPP4L9v+DT9jPw4+1cVlE3iD1OVllZGe3atcPx48dZTW3lifHT9HHo2z/wmNVIShSwj7Bt5UG8FbEsYE/M2gpJIrbG0m+K73upYufWi7jKqiRh07YjRuRfwaxLz1mN5Jz8l3ABewQLfgrBWxHLAvaLb46gpkes7YCvuIANwvIfL+CtiGUB+/XyA2ARK7EWnTzhcusctiSzivfGAjZ3DxZxCVv6Ba/SeyYXsLcwufoSlnHH+t/scWnCL9hX4pfkt34CrL77HiujWUUtJ3Ykm52dXQcCluPZEjaabLsCPoqA/QBEI9i6ELD8CLbqA7bqvQ7YhWUG7Cys+CAB+/GoOd/48pyJbZPcoCEUknFuyURsvCsUhLatXJsoK1+3eX65FZOa57GyNfxXLYSP/kPsm7sAfzz2xMxtk+Am2qFI8jksmbgRRbsViwvROf2zsbesgNXugEkTG+LqkqoLWH4RabW3KoJPP4ZDe3tocXVZUefxxa/3oCi06SL25EFM5UaN7biP+LOavsT5Hfux39wHqzzkkfhMEw0NsnC+qP+TO1iwScKRaXWOZLkQXWZ0BgvLClgnfyztko4layoSsAbwHDIEXip3EPTYBt5O6lxdFqJO/Iy91xRFbboJOPHzXlxLt0XPyb5wygvGjh9vwJJray73GM91LGDwPLi4f2rwDvwYmCDavThciC62vYHVZQWs7QDM75WPzasqH7BVOZJV6f0lZtU/JgRsafLNR2FB6zgs4AK2wiHgNwx/jXWACr/9/B62DBeNRv3WL8VYy2j8dV0LXb2MIMc1Pzq5CkNWprCfwY1e//JFE77jo4eIlM/CKYlHsk7wXzoW+sFT8U0tmEoqUjPmZK39sWq0GW4v8YOfnx/mHs2EhbfjG213lvQT2vw2xqHJ9CXoawic+2Y1jj4smr+JxE5uZHmteJLrHFaP4u8fjMSwfZjC95UkYDkWrRtyL9+yabvYw7SKLxYRcfYijseqoA0XnuuExY+juK1mivbafNtRbLj1OsiCDgfiUGyesB1x9hZu5Wmg4NYfmBz0Am5C/6O4UqAOB65vTdOtsZXYJ5xTs4bQlmEFiSXh3InLiKvvBqfcg1i2bBmW/R4FNetG3Bsy17brf7hT/KsLx5F9ZxAn/Oq4tisRKNB8iZvbtuFMlpOo/+938FLLkL2Zi+ftYAVFtl2aLffv0BOzllf9VNDFxpxtlyYPZ2dLNqipILee2N0tDZPbz0B7/hYADF7fE/xa1f6pf+GWrAO8tC5iAN828xz3S2kFS+Fva4nZuzsCuxeJ+v2ZBSNlvl5Sd7Bz/oRaFbA8sSGrpKQELy8vVpIu69b20HwYhAMsASN3zsZ0NowtbrvH3mvPHcT5ZAM0bWWICr8mJRQTsARLrhlj1Ow+KH1MQdqpjZj5wwt0WTWae0+uSuk4/2fFRpOCnCTcDBclyZOYKKF/zfho8rbj307E3oJeWDLCFaVz6M7OBZhwtyHWfdmTe/lX0JNg/FXe6LMM2Y8j8SCd33qCmLuS9w/aNA2/ZLTH3LGtUfr9NnzvMky+1ADz5n6G18cUfChZOLTqC/ylOBCL3zqkIB/Xts3F7FhnrK/gIQVuHblBiLkntgtHAnA3fkSrro3mRf/gzHvYs/Ty2yN5tyZwKLiL7/Zlisr7QxFZcuGrjhIbsrKystDV1WUl6ctMCa/wwpQ08WG6VkzQcimMJVIJ2rrvzs75+K2gZ5lBy6UwJlY2aKtZ+N6l2JXhXWbQcimMaTUmaPkwXVQctKUHJlmHVmFObFN8V8GgfX77AHyLRrL8reebH/nJazViuiDyQigKHP2EKQART8xcMQn8hAHflm7pjc8c2NPDsw/a6Cfh1sXHbMSmBj1bUUdr/0/g9I7PP9b+0zGKzUJIouYErSJ0dITZL8DGEe3MFUTbtRQ/av1NzIi2ZNBWyb9SWQM6aqJNWw8XmFXhr44fte4SM6KtqUG7qIyDZLMOrRZGtJIGbfA/Uciyb4VRRceyuvXE9994lP/vDP4PT/ScMbmf6A/iNqsV7Cs0XVA7if3GF6+wsBApKSmsJEVptxCj0xVjJ4/GAF9f+PpaImoT96TgJ/65tn9SHTFy5hQM5tvc5XBt5ZfYIUyKp+GFsSd69R4g9PMojMBDVWe0sCvE1aD7ED6UxMnCacBwjBjMt1/AD/tYvYSyH17FTUUvfOaSiqv3hc+Wr6XfwZlIOwzwU8HFkEessuJs2nbAeGcjWJkqIuJqPGx6+aBfQwNY6ebg8u0U3CzUgm9nT4zkvw1klIFbKbpo5aSCLCULdHE0g4lcPkwcHNC4gTL01QzhbsfXJeBgRBnHbpbAHyf74ycNoV3fAN7tHNE8LxonEkTzveXRMbdCs8JH+EfC+5eWfCsIKU0GwkfuKm48LjXBEXkJxzR8MNUhGJfCC1llWQzg2dcHTU24f69KNIIjDdHzc29YGRpBJ/s+7iZyf5MGrdCpSye0bdsWBmlhSG3QDA7q6VC2dYeDpQ5kX2rC0dkaBvXlUN/MCbZ8XXQwIsv4PkBZntw9i0eN+uITjTu4Hl9qrjDmKk7Itcd4tyhcCpX8c7FxQ3MYJsW99Y2v91OIxOvn8MJtIDrmXeKeQ6yayQ+7gDOGvTHB/CIuR7FKcRLDcSjXDrOXDMJI/87w98jEwS//wjXun+i3fiw+aWgEW7tn+DtQHlNW9YKLqSVcDW/g0PkIBEZo4vMv/TFpWGd4ZD1AjG5TdG2njHOHwtFw9jT8sqQv3A200LAHt98+xsj5+ybuFf/q+IWvheis/jcuvvN5UbPQ+WRJpYiOiDCBEl/IjsW+7SW+9UUqjv9a7VAn6PHbuQk49PPRKjxOtu7oNm0GFDauQW1a+6KQJYQQKXrnwpeKCpsHJIQQUinvPISrW7durEQIIaQyasTRBYQQUlfRnCwhhEgRjWQJIUSKyghZawxatBnrZvaEGashhBBSOWWEbCR+XbQQx5+bwoVSlhBC3ouY6YIURKdmsW1CCCGVRXOyhBAiRRSyhBAiRWJDNiNDEaY0KUsIIe9FbMimRD+HTpdxGOnKKgghhFSY2JC19miARz/NwfYQVkEIIaTCxM/J5qahOk4lSwghdRktfBFCiBSJCVk9WOnSaQ4JIeR9lRGy/NdqF6Nb/XjciGNVhBBCKoXOwkUIIVIkq6WlBf6mpsYu6UkIIaTKyAQEBAgj2dDQUOzevVuoJIQQUjVouoAQQqSIDuEihBApopAlhBApopAlhBApopAlhBApopAlhBApopAlhBApopAlhBApopAlhBApopAlhBApopAlhBApopAlhBApopAlhBApopAlhBApopAlhBApopAlhBApopAlhBApopAlhBApopAlhBApopAlhBApopCtheSbj8C0IQ6sVBcYwWf8ePgYsSIhdYhUQlal+y64DR0PJVZ+i+lcOC4IhHOvTqxCulQ6TMPU3qxQZdrhh5NrcPo0dzs4GD5i/7EVNKIflvvIQ4YV36LSG1M/yceJXfdYhYhGn9/RrP9AyLNy7ZKIo4djYTd8KBxZDSF1heyKFSvA3wYPHsyqqkH8coSfCEM+K0qN9nB8s38/doxpBk1WVVVG/NASzzfMQfv223AuzwxeHd4z3jz98NspLrA/t4Ecq3qbCnqPN8fthbvwZsTWAYlHsfYw0HUoxSypW2TnzZuHxYsXs2LVyDo2BME7NiOHlT+YtJ/xpd9QbLmeziqqii3MtJ4j8Rz/NhGOhf2/xsyj7/mWcW4/+neYgYDwAlbxNvnmA2CZ/DdOsHJJGQd9cf23PRV+41L2XoQGhqzwod0NRqpJF5o2IHWKbGFhIfLy8ljxY+ONid9uxsqxraHKal6zxYD532Hz3M+gw2o+LHk4O5ujMKkqx7COULc0Qj1W+vDuIjhBGXYulLKk7pBt0KAB2xSRd1+PZgsC4THrBxgYyAjzqx5vzJ82g/F4rp2/T+l5Vc0hsJ7B1x+BrZc9q3xN3n2daN9cu42tGquVAPexf/W+/djPffTnb78u4idYVdBh9lbs37sR02d+w9r2YuNEF1EfKfFcPBv/nB4FT30L9DjMz8nOx2phDtUWi39bLZqfVeTv2Q6bT3DtP3eDOut36vQkTJ0wBif5eVzudnC1M4S7SkQeJhqvkJbAikUMJ8FuNv87PYCGbiWHpN1hPi0QzfpPhfHw/7G/1w4Ys7soe2+B24I1sDQxg+mosvqXzbzLGMz9aijate6HWV99ha+42+TeDlAobpuM3g58CXDrN4tr5+7LvYMJbZOHYND4uaK6ov5D273xBpeWkg1lPW1WIqT2kz1w4ADbFMm/MhVhwQl4evk7JCW94j76r0fszf8h7PDfXKspdAfOhV7iWlxe0pW7zUWK0cTXgZq+C5FruiLkxH3uY+srUV0R07mwbZmJSKHfRCQVaEm4SMOF6UhLxK3sBz8/P/gN3YLb9YzhgiycWjkbgQkGcFG5yNq241GT6RAyWCJB2DRtPGb/eAEvWM1r4di7dDLGLz+AJ6yGd27hSnTk52GTY/C/XjPQvv1SYarglTBtcAzhL9kd8S/GL7uK5EJR6dzCQzifbIoernH4rD3f7y8kWTqho+QpW7bHGxG2situnYtF8Y8WHEPsiRC8smkDpdtjhL/XrXO5UG8qOiohO2gMgpfMwMOEOMRv4/8mnyEq+LHQ9i6xJwIRkmKENo2SsGnZMixbFogkQxs04nI19sQWnHzwerojeN9vuJYi+gXwjyVKWRMvzqzB7muKaCX0D8QDFS1YiDKZkDpJtk2bNmzztayLZ/Gy6WRhJCvv3gMyEWx+VdMbmropeHyJD1zedSSHPISSZTvxRxIwKk5WyL+xB8+EUjwyouIlnD/MwqWQLDSZsw97N06ES9YprJ6/CTdYK/f5GZePHBJtZ13CtehM6BhLdzRbeXH43xfH2e+govKRkCEDbRNWlFBexEHESRCeFZOA87//W8YbUzmexyPigWhqKiHmWpn9tfWUkZ2SxkqE1H5lH8KVHoT0VH0YtlsIc+d6yAxj9R9I1qkVGM2NVEccro/xxdMFH5t83LwZC1mDunR8bGmOcDPJRtiNRFYmpPYTc5xsPFLPhaDA1gX1wopGnxwhfPVg2PL1/Ky+qyVyHv5b7pEE+U8yoeoyUJifFPWzk2y6QKUDZi7lRrAyorAdNXQL7uk1RXHMyurCtjUbuWr3R5cm+Qi/UDzOLYcUFr40NNGITQGMGOAC/So8Ejn/2l481O+ELqxctbrDuEdVHGdbHxp6bC9uHmiqV4FfgKMbdBNO4ChlLKlD6mlpaS1SUFCAg4MDbt++zao5z15AvpENsi7uwIviz3XPkHUnEvXaz4dDt0Ew8eoAxcgNuHfiiqiZX/iauArWjRtA1aIrTDxaIz/yqNC/8FEgMrSHwnHAWK6fG3IjYqDctAsXurfxJDZF1L8s+Rmw7T4Bw0b6wteXu/VygWzIz/j26n9cozJcOrZEfQ0PjBk9GL6fmCFx32isDhJ1FY6T3TkDHQxVoefkiz5tDRB9/Cr4niKWaNHFAepP7uBscOnpC104ebWA+atYBJ0LRTarxYgxOLG2EyxVNWHbvzP8verh0JFI5AqNMWjQqg98J3aFv39nqEffRJ59a3TQPoe0bkMxxN4Idh6i+w/6YSy8TY1gb5eMI//8hwL+ONlfhqGlrgqMWnUstd8i+Qi7aYjeE8xx8XKUqIpf+Jq4BBZW+lBr1Asmbi7Iuvc3snO7w3xwb+gYNoT8i3N4+moYrH2aQ9OsKV5FHMbzTL5zMgo1P4FV74kw8zLHsz+XIl2oF8+8C/dG1sgI5qayCLkZg6b9BsPdpAGMNZ/gRlgK4pVN0KW9D7zbtkVbpUTczW2IFrb1kGzghNbWFlB/9RIN3BxgpcO93eo0grMVXxeCmzG2GDrECGc3n+QeFSF1h0xAQICwQhUaGordu3cLlbWHNoavWgyV3yZhk6SD1zpApfeXmFX/GBaW+tZX7WUEn2nDoXdyGXbcZVWE1BEyZmZmpQ4DqC34Q7jWY0wzTSAvFHsHLQJb/iKEkBqjFocsIYTUfFI5QQwhhBARCllCCJEiCllCCJEiCllCCJGi8kPWehAWbV6Bka6sTAghRGLlhKweOnfSxI2Vc7A9hFURQgiRWPkj2dwnSIhj24QQQiqE5mQJIUSKKGQJIUSKyglZDehrv31+KkIIIZJ5R8haY9DCEVAK2g5a8yKEkMp5R8hG4tfFPyHHeyTo6C1CCKmccqYLMpCcVuGLjBBCCGFo4YsQQqSo/JBV1IGJGdsmhBBSIeWEbApuRNVDm9n0tVpCCKkMOmk3IYRIEc3JEkKIFFHIEkKIFFHIEkKIFFHIEkKIFNXT0NBYxLbfICcnB1NTU2RkZLAaUhW6T/8GAT3UsM2wD65OdMCjP4PxgLXVJjZtffDT0PYY2s4Ng9z1IH8/EjezRW2Wn83E4WnOeBrdBN+u9YH53bM4nyZqI5XXfcYaBHyqiu1vPHdMsHjqAMzuwv0d2jmieV40AhPyWA8R5XYTcGyFNzRPGGPGrsFwj/kHJxNZI5E6sSNZBQUFuLm5sdLHTbvDWEzqY8FKpVh8jhmj3VmhHC3HYrJtFBbNAfb0BPaP/hHHWNOHwAfl4YVjEMjfZnbFMG3WIJFchJ/cg66Lt6Dr6kD8UhSiht2xuLMCTqz6B23GOeDhtq+xohLvIkY+4zHex4iVSnEcihlDHVmhZqvK584Um0jhuRPQo+RzJwEL13N/A/7vsPc+ngp1JSi2xNqBpri9dhPUF3ZAzh9zMCOYtVWAautRmDrAlpVK0fkMMyZ6s4L0tVrwJU6eXoA1vZRYjSc2Ba7B6dNr8Mt0dVZXc9B0QTm0O0zC9ObJ+PNgDKspgXuRLBininNbr7CKd2mG77gXx3djfoT9isa47rsca1jLB2HjiUVNnmI5/+LkbqsitPBpdweIiQMJ6WPCiMa4/80y/Nu9L5T3TcOksxU/QtDIZzom2MXi8NEyhltcwC7rDwTuuMsqaq6qfu5s4IJVeO70k/S5o4A+U7yQtXU2ljpNhe3VMfD/veJ/D9XWYzG3fSaO7w1nNSVwATt3XgOEbApiFdJ3cQn3afBeLivxzmFi1xlovzMc+aymJhEbsq9evUJWVhYr1WaeGD+tLwxZqSJEL5JH2LbyIN56mbAXyYlZWyHJywS4jslzuNEH9xxfM+cDB2wRFXU4sNFrUGgCcjU1uJh8H8n4ftlaYeR6acNyTDzLPY9Yi6REARuG79cexVsRywXsUi5gf/tqB2p6xJb33JlfmecOtyU8dyT+pebh4OqVwsg145flGPJ7xf8eooDNwK6le/FWxHIBO4cL2EvTNqH6Irb2ERuy2dnZOH78OCvVYp4tYaPJtiugagO2Boo4h4ElP+ZzstMzkMS2P4TyApYfwe6bX/sDln/unJxd85875QUsP4K9PJ0Ctjw15xtfnjOxbZIbNIRCMs4tmYiNRa8mrm0r1ybKytdtnl9uxaTmeaxsDf9VC+Gj/xD75i7AH489MXPbJLiJdiiSfA5LJm4s/0XKvRDm9M/G3rJeJNodMGliQ1xdUnUvEn5udLW3KoJPP4ZDe3tocXVZUefxxa/3oCi06SL25EFMvfQc7XoNwKymL3F+x37sN/fBKg95JD7TREODLJwv6v/kDhZsuoirot1LQAtjhnpBL+gwlsWyqnLYtO2IEflXMIt7TFWCC9GvuqTg57IC1sgH04fr4cSyigSsAhx6j0VvmyQEXVGGdxsTrq4QKdcCsOUE93vi2xrn4lrAFpyIVUW7oV+gjcEDBK46hGyuradhGhLkLGCm/KC4f/6DQKzaV86EZjU/d95g0wKLdO5jUVX8TbgQnTVeHofLCljV1hg70wXhCysTsPz8aU/YK/Dbz3D9u9WYcTgH8B+FQH9D3D0SDuNPmsOgHtccG4T+w45yr3gR/03L4S90jEdkpDKeHVsv6luE28dW3X0YvfYZqyhSD64jlmKYxjlM/Lb6B441Y07W2h+rRpvh9hI/+Pn5Ye7RTFh4s4UN1nZnST+hzW9jHJpMX4K+3Of/c9+sxtGHRXMzkdjJjSyvFR8McQ6rR/H3D0Zi2D5M4ftKErAci9YNYcC2S9N2sYdpFV8sIuLsRRyPVUEbLjzXCXOkR3FbzRTtuY/yEWePYsOt1y+aoMOBOBQrWj2OOHsLt/I0UHDrD0wOegE3of9RXCl4PQ0gCe9e3rAPPyVxwEqDo1tD4c2lLEYudjAqWuOQWB7uHT2Fe9mNuPC8i2XLlmHZuovItrCDOd926CecT2B3xQv8u+cQ7gm/Zq7t5G0kaqoi6chqHIowEPVfdx6PNXW4vu9m0dqqWp870qLj3QjGbLs0VWcnWNRnhQpphAV7nfFwyAy0b8/fgqA0dgym83NUO7dhb6gSmrVTxL7efNsW/KtkhcFs/opf7OqR8wd6CP2uI9dUSGkJvUTIT3M/SMDyxIaskpISvLy8WEm6rFvbQ/NhEA6wBIzcORvT2TC2uO0eG3CfO4jzyQZo2soQMqKaKhcTsARLrhlj1Ow+by0EpZ3aiJk/vECXVaMh4bqwhNJx/s+KjD6ZnCTcDBeF8JOYKKF/RT6aeHMj4xEFFzClqkaklXR3x3ysDbPDhOk+KH1MQeLRtZj+G9B/2VA4VvSPXvAAp8obfZah8EkMwoQ3nQLEREnePyZgqWTPHWk9eavIkwMrMOe0BobMH4DSxxS8uPAjZn/9H1p+OxHeFfl3tGqCxrrm8PlNdCTA6dP8iFYDhq2K3kG5ke3O/TicyYrFGqFj4xxcXB0CUdM5BEeWXPiq2cSGrKysLHR1dVlJ+jJTwvGYbdcE/AtirZgXC/dKwhKpBG314qcpBhWcxqC/RDOx3p5N0ELY+jD4MP1eTNByKYyvuKDtt5QLWlZVU0ny3Om8suY/d/gwXS4maLkUxnIuaD3WckHLqiTy7Da+61E0kuVvS978yF8H1YjpgsgLoShw9BOmAEQ8MXPFJOHFxLelW3rjMwf2lunZB230k3Dr4mM2YlODnq2oo7X/J3AqOQdbirX/dIyqwCu05gStInR0VESbNo5oZ16Rj0pi2HhillkMlrCABUzQzkqNbX845QXt/KIRLat6L7Ka0NQTbaq2ag6HSn0ELlt5z52lteRNurygXVE0omVV73TxNu7nOaDnmKJjWRthwQ+D0Kvcp90DxD4xRJuZrtyrndOqL7rYKgottYHYb3zxCgsLkZKSwkpSlHYLMTpdMXbyaAzw9YWvryWiNi3CX/yMN9f2T6ojRs6cgsF8m7scrq38EjuihY54YeyJXr0HCP08CiPwUNUZLewKcTXovuijRZwsnAYMx4jBfPsF/LCP1Uso++FV3FT0wmcuqbh6P53VMul3cCbSDgP8VHAx5BGrrDibth0w3tkIVqaKiLgaD5tePujX0ABWujm4fDsFNwu14NvZEyP5b1cZZeBWii5aOakgS8kCXRzNYCKXDxMHBzRuoAx9NUO42/F1CTgYIf7SQd6erdG1cSN8yu9TuNlA+8kDHOR+Xql/ZZl0zK3QrPAR/in17aKq8PzBJYRpd0Ivm0e49qDUNEbyTZxOdsaQ7gW4eLNoSaQsCnDo4Ye25kYwN8zChXsZaPd5PzgZGsJIOQ4hUSlI0WwEn/afoG3btnAreIgwBXs0t8hFuoUrPCxMofJSFuYtbGGuoQaZBo3RhK/LuoB7En5bqjqeO2/QMUY7lVT8W8V/k/z4YFx52RL92rzA5btPWC2THYpzwWb4bIQBLl59a6mvlDSc+SMXnRaOwYzhneHvb4O0Pdvw3e0CYdFqVSfueWuni4yjt6A9ewT8HY1h21wegf97gAvH4mA7bDDmTOgKf9enuBvfAM197KB7/AouNe2LvT+PwAQXXWjbeHH79YBTxhWcDOP2K+AXvr7GPG8FHLsUyeqqD51PllSK6IgIEwizadmx2Lf9zcPBSHXhv1brA3fhE1wOwk8e/ODz6zWRfM8ZmJS3Bh9i7YtClhBCpOidC18qKmwekBBCSKW88xCubt26sRIhhJDKqBFHFxBCSF1Fc7KEECJFNJIlhBApKiNkrTFo0Wasm9kTZqyGEEJI5ZQRspH4ddFCHH9uChdKWUIIeS9ipgtSEJ1aF07YTQghHxbNyRJCiBRRyBJCiBSJDdmMDEWY0qQsIYS8F7EhmxL9HDpdxmGkK6sghBBSYWJD1tqjAR79NAfbQ1gFIYSQChM/J5ubhuo4lSwhhNRltPBFCCFSJCZk9WClS6c5JISQ91VGyPJfq12MbvXjcSOOVRFCCKkUOgsXIYRIkayWlhb4m5rah79SKSGE1DUyAQEBwkg2NDQUu3fvFioJIYRUDZouIIQQKaJDuAghRIooZAkhRIooZAkhRIooZAkhRIooZAkhRIooZAkhRIooZAkhRIooZAkhRIooZAkhRIooZAkhRIooZAkhRIooZAkhRIooZAkhRIooZAkhRIooZAkhRIooZAkhRIooZAkhRIooZAkhRIooZAkhRIooZMmH4+SP6SNcUY8Vaz9tdBg7CX0sWJEQjlRCVqX7LrgNHQ8lVn6L6Vw4LgiEc69OrEK6VDpMw9TerFADuE2ZjsGVuQK72xRMr1THd3HH+r/W4PRp7nZkGPrpsur35eeL5f3UIMOKb+uGaf3k8O+OELxkNTy1TwPgOngkFFm5dknDqf2hMB4ymvutEiIiu2LFCvC3wYMHs6pqEL8c4SfCkM+KUqM9HN/s348dY5pBk1V9UL5LEcA9npmtDSo4evPF0j37sX9maxhU8bDPb307YPcitG//PU4+M0LLDu8Z4m49sfskF9hj7aHCqsrSbZoDohb/hJCSCVsXpJ3Cxl0v4DmaYpaIyM6bNw+LFy9mxaqRdWwIgndsRg4rfzBpP+NLv6HYcj2dVXxgv8/H536rcSGlkFVI6nfMH+iH1ReSUdGe72YJK51s/Hctk9t+iJWDv8bUffz2ewg+gsGdZ+DH2+/46zv5wz4jCH+V8S6b+efnCNm9HbmsLCnF1otgaMUKH1rMBTzW8aZpAyKQLSwsRF5eHit+bLwx8dvNWDm2NVRZzWu2GDD/O2ye+xl0WE3N5Y7RqzZj9aQO0GY1r1mgz+z12Lzgc26rZnBq1hAyqbffmCZ4Pw2hbmUKOVb68GJwIU4GNs0oZQkXsg0aNGCbIvLu69FsQSA8Zv0AAwMZYX7V443502YwHs+18/cpPa+qOQTWM/j6I7D1smeVr8m7rxPtm2u3sa3Ax1LuY//qfdzHZe6jNn/7dRE/waqCDrO3Yv/ejZg+8xvWthcbJ7qI+kiT7xLsYY+Fv60eys89umHK979h/9ZZmP71Hta2FbO8aubsotvsaThxegI6G5uh83Z+TnYh1gtzqJaYvXulaH5WeHdxx7o/ufbdPcEPFPl+J09Pw+wJw/AXP4/L3Y6s96jQG5GJtgyeJpQak+uORKOZ/HPjEBq1bsgqeW1gOikQroOnw3DwIfa8C4ApG7Uqtt4I1wXfo6GlMYwHldW/bEbewzHrq1Ho1LoPvvjqK3zF3ab6NQP/rBS1TYVfM9Fz1LHPF1w7d1991jZ1GAaNmSWqK+o/qhO45mLP/suEgq4BK5GPmeyBAwfYpkj+lakIC07A08vfISnpFffRfz1ib/4PYYf/5lpNoTtwLvQS1+Lykq7cbS5SjCa+DtT0XYhc0xUhJ+4jH69EdUVM58K2ZSYihX4TkVSgBXnW9G5cmI60RNzKfvDz84Pf0C24Xc8YLsjCqZWzEZhgABeVi6xtOx41mQ4hgyUShE3TxmP2jxfwgtW8Fo69Sydj/PIDeMJqRLgwbfocWwZzP4//masvIF/PFQoIxoYJfyBczRUGD0aztnswG7cUXAZL2RVsnTUeMzeeQhqreS0GB1dOxfglAdzWa8Erv0UXfh72URxOjpyB9u0XC1MFr4Rpg0O4nc3uyO37i8Xn8KhAVApeeQinH+mjs0caJrfn+/2Ohw0ao+P7DvdTt+PB6q64cSoS7Ecx5xF/9CLyLdtALXqG8Ly7cSoN9R3aCK25FyYhZMkERD18hEe/8s+t3nhwIUpoe5fEoEBcTdSGu/1zBCxbhmXLDiNOyxo23N8qMehnHA0t/gXg7sF9uJAoelSJQVfxQEYDede+x88XXqKZ0P8wQmW1YCL1vzOpjWTbtBE9WUvKungWL5tOFkay8u49IBPB5lc1vaGpm4LHl/jA5V1HcshDKFm2E38kAaPiZIX8G3vwTCjFIyMqXsKFryxcCslCkzn7sHfjRLhkncLq+Ztwg7WiMAmXjxwSbWddwrXoTOgYS3M0G4wLKeYYt3s/F2xeUAzegHnfnHk9h5gRgqN72bxm8AVEPNGAgWvtXCsXLxEnFx5BNCtVVELaK2iZVOzAloKHRxEnQXhWTDKuHPmb+28FZSUiMkL0N06OuVVmf/UGashLTWIl8jEr+5meHoT0VH0YtlsIc+d6yAxj9R9I1qkVGM2NDEccro/x3Mdw0XTBhxO8YSL6c49na44fdhZPFxBJ3bkehVe6TerQ8bGlWaC12StEXC/52YF8rMQMJ+KRei4EBbYuqBdWNPrkCOGrB8OWr+dn9V0tkfPw33KPJMh/kglVl4FQF0p8PzvJpgtUOmDmUm4Ey6UYH7ajhm7BPb2mKI5ZWV3YtmYjV+3+6NIkH+EXise55ajEwpfbFCz7khvBcpvBGyag/+oLULX7DGpFKavREB4ebOTq2wPu8tG4fLmia+UVJYWFLzUtWGqINv0+d4VxVa4q3dmJUA1vfCLZfFEFtYFhj6o4zlYFGjrsIDRHDzgbVeAXYNEahk+CcJAylnBkOVBQUGDFEuID8TQxEelh91kFjwvfPcuRYjSdLUAsh17iJoSfCRU1s4Uv1y7O0PdaxxbPRE3CXG+EGeyFfrOgmBAG2SYl5nPFybqBVKW2mFO08LVjJIzuHwGbIAAK05BpOl7U9mN7ZP0+GZuKMlY4TnYHxjTTh/2A/aLpBtZUacGJKHSegN3CwhZ3m+mAuON78bxoCjojDZr9d4rafJVwctoqnCnKWOE42ZlorWeF7j+z6QbW9G6i42RnttaHVfefhcW1915P8xuGP0sufLGFLZEruBipxRbE1uDTgvt4ZOCJxbP14Da7N9rzfRaL7u+3/hM00XfAwPke0OXfaNhxsmOb6KHJmEU49cZ+Xzv+7T00nNLz9RstW/hy6eAEgw7fw2PmRugJO2wDU59WULf0gRm/oMXdz6x1I6i7jCte/AKi8Cw6C/rCwtc4yN0t/xAwI++uaGFkDPeeogUrxz6dYK9ng7bdRYtfdyNioeY+WlgQ+6rlK0Ty87fcfR28W6ARdz/Xlq3h4WwEY4d2aNelqI7fkwU+/0wV57Ze4X8MIZAJCAgQ4iE0NBS7d+8WKmsPbQxftRgqv016HawfFBeGP1jhn6klgpWI120alhmdwcKf3vzWV+2ljQ6TJqLh1SWgjCVFZMzMzEodBlBb8IdwredGqZpAXij2Dlr0enT7QfCHcM3gRqmyQMwxDJ+5A5Id1s/128T10y9r5iYdId9PwipKbEJqrVocsoQQUvNV7DgaQgghFUIhSwghUkQhSwghUkQhSwghUlR+yFoPwqLNKzDSlZUJIYRIrJyQ1UPnTpq4sXIOtoewKkIIIRIrfySb+wQJcWybEEJIhdCcLCGESBGFLCGESFE5IasBfe23z09FCCFEMu8IWWsMWjgCSkHbQWtehBBSOe8I2Uj8uvgn5HiPBB29RQghlVPOdEEGktPevvoVIYQQydDCFyGESFH5IauoAxMztk0IIaRCygnZFNyIqoc2s+lrtYQQUhl00m5CCJEimpMlhBApopAlhBApopAlhBApopAlhBApqqehobGIbb9BUVERTZs2xePHj1kNqQrdp3+DgB5q2GbYB1cnOuDRn8F4wNpqE5u2PvhpaHsMbeeGQe56kL8fiZvZojbLz2bi8DRnPI1ugm/X+sD87lmcTxO1kcrrPmMNAj5VxfY3njsmWDx1AGZ34f4O7RzRPC8agQl5rIeIcrsJOLbCG5onjDFj12C4x/yDk4mskUid2JGsmpoaLC0tWenjpt1hLCb1sWClUiw+x4zR7qxQjpZjMdk2CovmAHt6AvtH/4hjrOlD4IPy8MIxCORuBwc5wJzVSyYX4Sf3oOviLei6OhC/FIWoYXcs7qyAE6v+QZtxDni47WusqMS7iJHPeIz3MWKlUhyHYsZQR1ao2aryuTPFJlJ47gT0KPncScDC9dzfgP877L2Pp0JdCYotsXagKW6v3QT1hR2Q88cczAhmbRWg2noUpg6wZaVSdD7DjInerCB9rRZ8iZOnF2BNLyVW44lNgWtw+vQa/DJdndXVHDRdUA7tDpMwvXky/jwYw2pK4F4kC8ap4tzWK6ziXZrhO+7F8d2YH2G/ojGu+y7HGtbyQeg3xWS7p1jOvzgXH8Ud3Tb4+hMDyLDmytHHhBGNcf+bZfi3e18o75uGSWcrfoSgkc90TLCLxeGjZQy3uIBd1h8I3HGXVdRcVf3c2cAFq/Dc6Sfpc0cBfaZ4IWvrbCx1mgrbq2Pg/3vF/x6qrcdibvtMHN8bzmpK4AJ27rwGCNkUxCqk7+IS7tPgvVxW4p3DxK4z0H5nOPJZTU0iNmQLCwvx6lVdOITWE+On9YUhK1WE6EXyCNtWHsRbLxP2IjkxayskeZkA1zF5Djf64H6la+Z84IDlaapDm7s5aPOFBPwb80yofj/J+H7ZWmHkemnDckw8C1T0GSQK2DB8v/Yo3opYLmCXcgH721c7UNMjtrznzvzKPHe4LeG5I/EvNQ8HV68URq4ZvyzHkN8r/vcQBWwGdi3di7cilgvYOVzAXpq2CdUXsbWP2JB9+vQpDh48yEq1mGdL2Giy7Qqo2oCtgSLOYWDxx3wTtLN4ibA7SRV+EVal8gKWH8Hum1/7A5Z/7pycXfOfO+UFLD+CvTydArY8NecbX54zsW2SGzSEQjLOLZmIjUWvJq5tK9cmysrXbZ5fbsWk5nmsbA3/VQvho/8Q++YuwB+PPTFz2yS4iXYoknwOSyZuLP9Fyr0Q5vTPxt6yXiTaHTBpYkNcXVJ1LxJ+bnS1tyqCTz+GQ3t7aHF1WVHn8cWv96AotOki9uRBTL30HO16DcCspi9xfsd+7Df3wSoPeSQ+00RDgyycL+r/5A4WbLqIq6Ldv5O3sD8FhHP7n8LtX1I2bTtiRP4VzKpAn3fiQvSrLin4uayANfLB9OF6OLGsIgGrAIfeY9HbJglBV5Th3caEqytEyrUAbDnB/Z74tsa5uBawBSdiVdFu6BdoY/AAgasOIZtr62mYhgQ5C5gpPyjun/8gEKv2lTOhWc3PnTfYtMAinftYVBV/Ey5EZ42Xx+GyAla1NcbOdEH4wsoELD9/2hP2Cvz2M1z/bjVmHM4B/Ech0N8Qd4+Ew/iT5jCoxzXHBqH/sKPcK17Ef9Ny+Asd4xEZqYxnx9aL+hbh9rFVdx9Gry39qaweXEcsxTCNc5j47XFWV31qxpystT9WjTbD7SV+8PPzw9yjmbDwZgsbrO3Okn5Cm9/GODSZvgR9uc//575ZjaMPi+ZmIrGTG1ley2BFnMPqUfz9g5EYtg9T+L6SBCzHonVDGLDt0rRd7GFaxReLiDh7EcdjVdCGC891bI70tpop2nMf5SPOHsWGW69fNEGHA3EoVrR6HHH2Fm7laaDg1h+YHPQCbkL/o7hSUDQNUL6gw3u5n/c/hNr2xa/vPSdbeY5uDYU3l7IYudjBqGiNQ2J5uHf0FO5lN+LC8y6WLVuGZesuItvCDuZ826GfcD6B3RUv8O+eQ7gn/Jq5tpO3kaipiqQjq3EowkDUf915PNbUKXdx0KK1VbU+d6RFx7sRjNl2aarOTrCozwoV0ggL9jrj4ZAZaN+evwVBaewYTNfnmnZuw95QJTRrp4h9vfm2LfhXyQqD+TYOv9jVI+cP9BD6XUeuqZDSEnqJkJ/mfpCA5YkNWQ0NDfTo0YOVpMu6tT00HwbhAEvAyJ2zMZ0NY4vb7rEB97mDOJ9sgKatDKUWCDEBS7DkmjFGze6D0uvCaac2YuYPL9Bl1WhIuC4soXSc/1Oy0ecbcpJwM1wUwk9iooT+Ff9o8hRbjt1AhlFDNGc11e3ujvlYG2aHCdN9UPqYgsSjazH9N6D/sqFwrOgfveABTpU3+ixD4ZMYhMXyWwWIiZK8f0zAUsmeOx/q3UxCTw6swJzTGhgyfwBKH1Pw4sKPmP31f2j57UR4V+Tf0aoJGuuaw+c30ZEAp0/zI1oNGLYqegflRrY79+NwJisWa4SOjXNwcXUIRE3nEBxZcuGrZhMbsnJycpCXl2cl6ctMCUdNOiKXf0GsFfNi4V5JWCKVoK0+/BTFoYmt0IKV31wI+zD4MP1eTNByKYyvuKDtt5QLWlZVU0ny3Om8suY/d/gwXS4maLkUxnIuaD3WckHLqiTy7Da+61E0kuVvS978yF8H1YjpgsgLoShw9BOmAEQ8MXPFJOHFxLelW3rjMwf2lunZB230k3Dr4mM2YlODnq2oo7X/J3AqOQdbirX/dIyqwCu05gStInR0VESbNo5oZ16Rj0riZadnIIlte9ubQDExHkEf+EsD5QXt/KIRLat6L7Ka0NQTbaq2ag6HSn0ELlt5z52lteRNurygXVE0omVV73TxNu7nOaDnmKJjWRthwQ+D0EuNFcV6gNgnhmgz05V7tXNa9UUXW0WhpTYQ+40vGRkZaGlpITZW+MwkXWm3EKPTFWMnj8YAX1/4+loiatMi/MXPeHNt/6Q6YuTMKRjMt7nL4drKL7EjWuiIF8ae6NV7gNDPozACD1Wd0cKuEFeD7os+WsTJwmnAcIwYzLdfwA/7WL2Esh9exU1FL3zmkoqr99NZLZN+B2ci7TDATwUXQx6xyoqzadsB452NYGWqiIir8bDp5YN+DQ1gpZuDy7dTcLNQC76dPTGS/3aVUQZupeiilZMKspQs0MXRDCZy+TBxcEDjBsrQVzOEux1fl4CDEeIvHfQk9gHSrDpiZb/WGMTtt418BJZuv457rL08OuZWaFb4CP+U+nZRVXj+4BLCtDuhl80jXHtQahEn+SZOJztjSPcCXLxZtCRSFgU49PBDW3MjmBtm4cK9DLT7vB+cDA1hpByHkKgUpGg2gk/7T9C2bVu4FTxEmII9mlvkIt3CFR4WplB5KQvzFrYw11CDTIPGaMLXZV3APQm/LVUdz5036BijnUoq/q3iv0l+fDCuvGyJfm1e4PLdJ6yWyQ7FuWAzfDbCABevvrXUV0oazvyRi04Lx2DG8M7w97dB2p5t+O52gbBotaoT97y100XG0VvQnj0C/o7GsG0uj8D/PcCFY3GwHTYYcyZ0hb/rU9yNb4DmPnbQPX4Fl5r2xd6fR2CCiy60bby4/XrAKeMKToZx+xXwC19fY563Ao5dimR11YfOJ0sqRXREhAmE2bTsWOzbXuJbX6Qa8V+r9YG78Akup8JHiXws5HvOwKS8NfgQa18UsoQQIkVi52Tr1asHHR0dViKEEFIZYkNWU1MT7dq1YyVCCCGVUSOOLiCEkLqK5mQJIUSKaCRLCCFSVEbIWmPQos1YN7MnzFgNIYSQyikjZCPx66KFOP7cFC6UsoQQ8l7ETBekIDo1i20TQgipLJqTJYQQKaKQJYQQKRIbshkZijClSVlCCHkvYkM2Jfo5dLqMw0hXVkEIIaTCxIastUcDPPppDraHsApCCCEVJn5ONjcNKSlsmxBCSKXQwhchhEiRmJDVg5Uuu9wJIYSQSisjZPmv1S5Gt/rxuBHHqgghhFQKnYWLEEKkSJa/WCJ/U1Mr95KRhBBCKkgmICBAGMmGhoZi9+7dQiUhhJCqQdMFhBAiRXQIFyGESBGFLCGESBGFLCGESBGFLCGESBGFLCGESBGFLCGESBGFLCGESBGFLCGESBGFLCGESBGFLCGESBGFLCGESBGFLCGESBGFLCGESBGFLCGESBGFLCGESBGFLCGESBGFLCGESBGFLCGESBGFLCGESBGFbG2j0huzNn+HqV1YmRBSo1HIfgBuU6ZjcKWuwC6P5gMs8fj7yVh/glURQmo02RUrVoC/DR48mFURqfFdioD9+zGztQHqsaoKe5WGpHtsmxBS48nOmzcPixcvZkUiVb/Px+d+q3EhpZBVEELqOtnCwkLk5eWxIiGEkKok06JFi1fJycn4/PPPsXv3bsi7r4dTF0M8OX0L9du3BT91WBD3P9zdsRk5fA/TOXAc5iXU83Jur8XNw3+L+rXTQOYTdWgbFeBxUf9n1xC6fj6ecfeVd1/H7bsxFPiOJeoFpnO5/Yp+Hk+03zDoDlwPa9NkJEapwshen2vJxdMzsxF+5r5wP5Xuu9DEja/nZeDx/v6IDXvFys1gPH45THVFpaLHKmIq2re1qlB6s60cvkuwx9cOcqwYc2w4Zu2ww+TvZ6C1/A1cSWkK90Z8azpCvp+EVWdyRXcUuGHK958hY9Zs7MhkVRJTQe8Zo5G1Zj1oSpaQ2kH2wIEDbFMk/8paxEXKwdBNGXFLuuHykrl4LOcEDQO+lQsmz0Z4vr8rV8/f5iJFvS3UIcP124Wk59qQefAVQk48ho7Qfy7iM3WhzPflQtS68QOECv26IuRSfVgOHQ8lfrf8ft21kbKF7fe7PchQbMS1xSN1z9eIf24J7YLdrO0PvGy+COZ2XDfNITAyjS3e5+VfbkHRrqOwR1GIzoNe4trifWYa8I9VRKX7Aug8+krUtmQUElSGw9arMWt9Fy4kmz7HlsF+8PPjbqsvIF/PlXvjCMaGCX8gXM0VBg9Gs7Z7MBu3FEMrtchVGhewM1fA/A4FLCG1iWybNm3YZknP8DiQH2UWjQiL8KE3HLEvuFHngkB4LOBGidqsiZeXiPQw0QgzN+bs61EqR8XJDhpmPeAs9AuEaxc7KGsacuEkw7XGIyNeDsZjAuHGB2/6Ljzcx0bOvLyHeHzpH9F2ehDSEwuhZMAFIne/yC3zUcCNZvl9enAjYRXRvbgA9oambjLXj41O2X1Fj6kZtCxMoOW1TtRvwTZuRKsFZS0TofXdgnEhxRzjdu/H1lleUAzegHnfnOHG10xGCI7uZUPU4AuIeKIBA1dFUfm9ZOHQ6jmIdZoKOnqLkNqjgodw8aPDA/Doy49S+REgN1JNY00S4D+Si0aO7CZMF4iCPP/KVFzn6m7dt4E9F3zOvToJ9e/EjWStZwTCRoGNcn85y0VRCbmpyE5i22/h3kiKR+Sim6TTBcEbJqI/N1LdmuOHnfv3YzU3VOXfKqQvHwlp6WybEFIbVCxkhdFhCh7uLZpjHQKDkiPZd8i6E4YC2z4wEKYdOKZzYVMUpFxYWvYTTR0IYVvqoz0UjKBpxz7Kmw5GA9N0YcQsb+sC1dT/IUwIR34qw/X1SJYf8T63hmGJKQCV7t+LphlwHU9jcqDnUTRdUdQmQVS6TcGyL7kRLLcZvGEC+q++AFW7z6BW1FWjITw82MjVtwfc5aNx+XLJOVlCyMdExsLC4pWCggJ8fX1LLHzZQUFYmFrAfRTfKSwsFS1+yQplUVIWxJ3Gozx3mJsmIy4kFw1a2aHw9kGkGPWBaf2HJeqKFsfELXy9uUD15uIW1zZyElS5yNU24hep+MWtfogN4+9Xsh/X58q/eOnUBZpc8AoLdfxId+RA6LLkrZqFL18sCfCFnTwrvrG45YulP7hCDhZoqMO/f8Xg2PCZrxe4+ONkfW1R1DU95HtMWlViqqFc8mg+YhIaX/4Wu+hYWUJqBZmAgADh83poaKgQsjUPH7KjUPDneCQllZ4jrmn4kLXCP1NX4Y0DCqqQfPNRWDzMCclH6FtfhNQGMmZmZjU4uUqMNksf8lXj8IdmzUBrPW4EG3MMw2fuQIWP0CKE1Dk1PGQJIaR2oxPEEEKIFFHIEkKIFFHIEkKIFIkNWTk5OZibm7MSIYSQyhAbsvyxs25ubqxEqptJj4kY37Xomxt1gRP8p4+Aa6VPpEtI7VRHpgs6wXzqH7B2N2Xlt6n32gePBbtgLP4ub3Pqg4BTa3D69BoE/uKDJqy60krs7/TphfjmU1ZfmvNwDG0YiT8CS34nuD4Mhh2Fk08rVq5t7mDnyQL0+qJn8ZcxCPkYiA3ZV69eISvrjTMB1GrPDi/Cw7iKnDfXFPNnmCLkixloP+gIItWt0fF9UtbIE5sWsf21n4FBOx7BduQQvJ2zzhjesQAH1gVC7GkXaqs7OzH/XkNM7kkxSz4eYkM2Ozsbx48fZ6Wa7m/Eru+LyCvxrFwFjCxgIP8UD+5w24nnMLHvBnx7W9RUafKaMGTT3In/hCOuQAuNSgW3SY82ULp7AsK3ht/wHEncaPrO0YusLClFqPdYgOJvLH9ox++j0G0ITRuQj0YdmS6oBfig7rEYX/7JyrxcLsTfCG4TNLPRQGZMFY5h5dpBy4w/i0/1nCesfMcRlmYBZ2dKWfJxqAHf+GoMg6ErYWmmiLzIPbiz5zGMpk6HoXoy4n8Zgkf84NRuKZz9mrMzZpWo5yh5/QBHL0vIZYUhcvtUpL5xJsDX+0ZWAtKeAy+OjSzuWzZNDNk0FUPtS5xpOy8ef83kRrKp3Ef+H3vC+kkQZg47ittOfbBnQyuohuxBr5nRGLyR62cajT+CDdDXm1+0ykPsXz9i2Ldxov2U4DR/Kqa9OFiqzRnD53sjces6lJyOlbFfhiafuUH5VTISAoYgIZo1KE6A7SwfKNz4E8+sesJQg6t7yf0evv4CqVCAeu+dsHfSFN2XV7p/mdTQzG8kuhvHIeiuDrzd+X9HPhIv7MbPQc9EbZbPcGH3zwhK1EenUaPhrhaKw+tOQoFr66SVimRlCxjLhBb3fxF6GOsO3hXtnuPkvwRd0pdizZF8VvNat2mb4JnxC+b/FIKXrI6Q2qyehobGIrb9BiUlJbRu3RqxsbGsRlpS8eLmE9Sz00bq4VXIzIlGRrohZBO+Q0LoM8BgPGz7OyJ992e4/+evSEhqhoZ9eqIgNBBZOUBB7FEknglBvqkjXkX9I9QVUe/1PYyefY3r279BQpQJdD3MkXfnEJ6/8wQIObh17F/s/DsbzVvl4dee32Der1dwiQ+953E4dlcNHVu+xKUjD5CUfB+XXpnB2+AxDv79ELduvkTzT73QLPN/6DZoJ3Ze10CfXjqI5u8r2rnAaMhILDW7jCFLSk8KNIAL94bxPOQyIl+wKl7KaSSd+R3PtD2hmBSIZ09Z/ctrSJdpAwt3K2Qc6IvQw9x9dAdCR+Mg0h4VIDfsABIupKCegxaSvhmMiLOHXvcVKw+PY/PQoFkrNM75B6u3HMDZMBU4u2sj+UYEIu5FQ9HGBoVRNxDz/AWiIzLRoLEmUkJu4VZKfdi31Eb03p9wV8sbreXPYvWhDDRuosz1jQH3HicwcPaGdc5ZXAx/+4KSkZeO4dSNx2+dLp6Q2krsdIGsrCx0datrJu9vJIUpwrj7EMjzo0+bAqSy+VUlOycoxf+D5Hj2sgvbg8epBtC0Le8wgU7Q4sLvv4vXRcWkIKQnVcMFIzNvY/uX7GeWgQ/Yjd6PsbLM+6QiNVsF+lqsKJFCvLj+Yzmj00rIDsXfJUafkipIeYjwRH4rG7ERZfc30ZbB0wS6Yi/5ONSYOdmcsDvIMe0Ikx6ToV1w5s0rHNQVTn2wnAvYxfxUA1c06tMJQ95Y+ErA9YgMqFnUpeNjS+sGO+0Y3ORG/YR8DMSGbH5+Pu7fF12vq1okbcbjcEVuFJuLlIs3WOXr8NU3ZQs3dgNhqJuE9PDyjiRIQE6uJRq0aiYq8v3MhNOFvzd5LR2IDhIwxYiudhCd9rsc/CFcc9Twx3BRwPJzvx1bm7+16p/wv/PIcewC4QIOVU1xHMyq4jhbOQ1osSti6Ld0hU3x5Sgk0K0xZIN3IYQylnwkxM7JFhYWIiUlhZWqRy6aQkPtHhKv3eI+BDMvruHJk2ZoOGgmLLwGwcRBHo9/HYOkZFEzv/Dl7N8fOroNoO0+CPrGski9w/cXzfUq+8xH485cP4MUJKeawKSFB3LYfK44TvO/xG/TXaGnZoCW/p3RxzEVv/39WNSYnAn7T3ti4MTO8Pd3QPbdh9Bs4YZmabdgOGwgOlmawlG4vxy+WucLZxNjNNZ5gGsN3PF5Gwd4cfvzF25t4ayWiKMbbiFCtGfmP9zIcoV/52xcupUq1PALX03HTYeRgS7UmwyCsYM5Mq6dQ57iBNh87gF1w8ZcOh/Cc8PFsPO2hoalG3LOcf9GvnNhAl4ZD4at30iYtOTey37aVs6nBDU069UbHmbGMNVNw2XufbbTwJ5obGgIg3oPcSPmP2TqOKFrx+5o27Yt7HKiEKPmBGejbORZucLVwhCKLxXR0M0GJurKkDeyhyNfl3YZ95O7YVqvZ9j4S+jrv28p/MLXcPsk/EvzsqSOoPPJ1lDOw7+Cd+I2rHvjW1+1mRP8l3ZB+pI1KOOggmJO/tPR4u56/ERDXVJHiA1ZfuGLP8KgLn3rixBCqpvYOVk+YLt168ZKhBBCKoO+8UUIIVJEc7KEECJFNJIlhBApKiNkrTFo0Wasm9kTZqyGEEJI5ZQRspH4ddFCHH9uChdKWUIIeS9ipgtSEJ1Kh24RQsj7ojlZQgiRIgpZQgiRIrEhm5GhCFOalCWEkPciNmRTop9Dp8s4jHRlFYQQQipMbMhaezTAo5/mYHsIqyCEEFJh4udkc9NQzWc6JISQOocWvgghRIrEhKwerHQrcrp7QgghZSkjZPmv1S5Gt/rxuPH2lawJIYRUAJ2FixBCpIjmZAkhRIpktbS0wN/U1NRYFSGEkKoiExAQIEwXhIaGYvfu3UIlIYSQqkFzsoQQIkU0J0sIIVJEIUsIIVJEIUsIIVJEIUsIIVJEIUsIIVJEIUsIIVJEIUsIIVJEIUsIIVJEIUsIIVJEIUsIIVJEIUsIIVJEIUsIIVJEIUsIIVJEIUsIIVJEIUsIIVJEIUsIIVJEIUsIIVIk1ZDVW+kIM7YtiYre/32V9fOq+zEQQuo2yS4/Y6EHm5YvELE3i1WUoK0Byx6yeLzjKXJYVUl8aCnPvos4Vi6PcP85d5G9whHWrK4sj9g+S+9fj+8nwwqlFPUp6a3+FXy8hBDyLhKErBx0B+uj3qlEJCWyqhJU+phCLyIeWYPeHYplERt6XMjGveNRVUUw8mEs/JyiMrePsh7/o3IeCyGEvEv5IcuNVM3a5CPuf2WMYqEIQz8VPN3/FPVLB18ZIVYyPN8nKCsTqmUpaz8l64RtCllCyHsod05WpZ06ZKLLClhAwVMbKk9fvDVNIITT3DfDK4ULruzlks138gHdkttH6Vt5ffmfW1a/kreS++Af0/sGNSGEvMu7R7LvnG9VhMkYTTzbkoRnrIZX1uiwJHHtJetLj4J5JeuK7svP25a+X5HyHkeRd/1coY1GsoSQ9/DOkSw/ii0MLntBix/FKkY/fSNgeeWNDqty9JjCBWA2F4RlHSFQ4YDlt0uNvovwbXTEASGkMt4xkn093/p2yMpB108TeftT3wpZPpDKWwArb5WfH1GWdYSAuCMKeG/0F/MYSv7cskbGJfdXpOixlPWYCSGkPGJDVsHTAHpPk/DoLqsoyUIHZo2eI+7vPFYh3rsCrKQ3QrKMaYDyQrG8nyPJ4yjr5xJCyPsQM12gCH174HlZAcuPYj0VkXuv/ICtLpIGeRH+/mUtivEjVuMy6vkbTRcQQiqjzJAVN98qsNCCdkF6mcfMVqXSYSfuCwaVwc8LXypxi+Tq+OmASG5ML/yflUveh0a3hJDKKCNk5aBumI8UMVMBKg6yyDhT9iFdVYVf0CoZcO8KuoqOYksqGtGW7i8cbsbazKow3AkhH5+3Q9ZCAypPn5U9itXWgG6951IfxUpbyXAVF95Fo13+2F4hbFk9IYRUhARfq5UMH1zv87VaSUakJX+GpKv9RX0kuT8tfBFCqlqVhSwhhJC3lbnwRQghpGpQyBJCiBRRyBJCiBRRyBJCiBRRyNZC8s1HYNoQB1aqC4zgM348fIxYkZA6RCohq9J9F9yGjocSK7/FdC4cFwTCuVcnViFdKh2mYWpvVqgy7fDDyTU4fZq7HRwMH7H/WEmV2B93+3mqMqsvRaU3pn6SjxO77rEKEY0+v6NZ/4GQZ+XaJRFHD8fCbvhQOLIaQuoK2RUrVoC/DR48mFVVg/jlCD8RhnxWlBrt4fhm/37sGNMMmqyqqoz4oSWeb5iD9u234VyeGbw6vE+82WLxb63Z/mag/cKrUP5kJKaqs+ZiKug93hy3F+7CmxFbByQexdrDQNehFLOkbpGdN28eFi9ezIpVI+vYEATv2FzmeWirVdrP+NJvKLZcT2cVVcUWZlrPkXiOf5sIx8L+X2Pm0fd9y9CAbiM50ea5WwhPUYeR55vBLd98ACyT/8YJVi4p46Avrv+2p8JvXMrei9DAkBU+tLvBSDXpQtMGpE6RLSwsRF5ezTmjVvXyxsRvN2Pl2NZQZTWv2WLA/O+wee5n0GE10sMH9UwMX5/NyrwMFuJF5OHsbI7CpKocwzpC3dII9Vjpw7uL4ARl2LlQypK6Q7ZBgwZsU0TefT2aLQiEx6wfYGAgI8yverwxf9oMxuO5dv4+pedVNYfAegZffwS2Xvas8jV593WifXPtNrZqrFYC3Mf+1fv2Yz/30Z+//bqIn2BVQYfZW7F/70ZMn/kNa9uLjRNdRH2kxHPxbPxzehQ89S3Q4zA/fzofq33kISN85F8tmp9V5O/ZDptPcO0/dwP/qZ/vd+r0JEydMAYn2bzrwdXOEO5a2oh2sI8/jx/eOIGEPEw0XiEtgRWLGE6C3Wz+d3oADd1KDkm7w3xaIJr1nwrj4f9jf68dMGZ3UfbeArcFa2BpYgbTUWX1L5t5lzGY+9VQtGvdD7O++gpfcbfJvR2gUNw2Gb0d+BLg1m8W187dl3sHE9omD8Gg8XNFdUX9h7Z74w0uLSUbynrarERI7Sd74MABtimSf2UqwoIT8PTyd0hKesV99F+P2Jv/Q9jhv7lWU+gOnAu9xLW4vKQrd5uLFKOJrwM1fRci13RFyIn73MfWUt/WNZ0L25aZiBT6TURSgZaEizRcmI60RNzKfvDz84Pf0C24Xc8YLsjCqZWzEZhgABeVi6xtOx41mQ4hgyUShE3TxmP2jxfwgtW8Fo69Sydj/PIDeMJqeOcWrkRHfh42OQb/6zUD7dsvFaYKXgmj0WMIf8nuiH8xftlVJBeKSucWHsL5ZFP0cI3DZ/y8a/u/kGTphI6lU9bTD7+1jMOoWTeRy6re6fFGhK3silvnYlH8owXHEHsiBK9s2kDp9hjh73XrXC7Um4qOSsgOGoPgJTPwMCEO8dv4v8lniAp+LLS9S+yJQISkGKFNoyRsWrYMy5YFIsnQBo24XI09sQUnHxSwewLB+37DtRTRL4B/LFHKmnhxZg12X1NEK6F/IB6oaMFClMmE1Emybdq0YZuvZV08i5dNJwsjWXn3HpCJYPOrmt7Q1E3B40t84PKuIznkIZQs24k/koBRcbJC/o097Oxe8ciIipdw/jALl0Ky0GTOPuzdOBEuWaewev4m3GCt3OdnXD5ySLSddQnXojOhYyzd0WzlxeF/Xxwv+wxnPD5gpypi94TjyHjrjBL5SMiQgbYJK0ooL+Ig4iQIz4pJwPnf/y3jjakcz+MR8UA0NZUQc63M/tp6yshOSWMlQmq/sg/hSg9Ceqo+DNsthLlzPWSGsfoPJOvUCozmRqojDtfH+OLpgrqmHX6YzAXswN04yg9hPTtgQteSY/183LwZC1mDunR8bGmOcDPJRtiNWn4uTUJKEHOcbDxSz4WgwNYF9cKKRp8cIXz1YNjy9fysvqslch7+W+6RBPlPMqHqMlCYnxT1s5NsukClA2Yu5UawMqKwHTV0C+7pNUVxzMrqwrY1G7lq90eXJvkIv1A8zi2HFBa+NDTRiE0BjBjgAn2JjkTm53MdET6CBSzHs4MNTEutSOVf24uH+p3QhZWrVncY96iK42zrQ0OP7cXNA031KnAotqMbdBNO4ChlLKlD6mlpaS1SUFCAg4MDbt++zao5z15AvpENsi7uwIviz3XPkHUnEvXaz4dDt0Ew8eoAxcgNuHfiiqiZX/iauArWjRtA1aIrTDxaIz/yqNC/8FEgMrSHwnHAWK6fG3IjYqDctAsXurfxJDZF1L8s+Rmw7T4Bw0b6wteXu/VygWzIz/j26n9cozJcOrZEfQ0PjBk9GL6fmCFx32isDhJ1FY6T3TkDHQxVoefkiz5tDRB9/Cr4niKWaNHFAepP7uBscOnpC104ebWA+atYBJ0LRfG6/4gxOLG2EyxVNWHbvzP8verh0JFINn8agwat+sB3Ylf4+3eGevRN5Nm3Rgftc0jrNhRD7I1g5yG6/6AfxsLb1Aj2dsk4kuOAkT4OaDaA2x/Xj795mz9HyOpLuPzGxGw+wm4aovcEc1y8HCWq4he+Ji6BhZU+1Br1gombC7Lu/Y3s3O4wH9wbOoYNIf/iHJ6+GgZrn+bQNGuKVxGH8TyT75yMQs1PYNV7Isy8zPHsz6VIF+rFM+/CvZE1MoK5qSxCbsagab/BcDdpAGPNJ7gRloJ4ZRN0ae8D77Zt0VYpEXdzG6KFbT0kGzihtbUF1F+9RAM3B1jpcG+3Oo3gbMXXheBmjC2GDjHC2c0nuUdFSN0hExAQIMz+hYaGYvfu3UJl7aGN4asWQ+W3Sdgk6eC1DlDp/SVm1T+GhaW+9VV7GcFn2nDonVyGHWVevJOQ2qsWn7SbP4RrPcY00wTyQrF30CKw5S9CCKkx6MoIhBAiRVI5QQwhhBARCllCCJEiCllCCJEiCllCCJGi8kPWehAWbV6Bka6sTAghRGLlhKweOnfSxI2Vc7A9hFURQgiRWPkj2dwnSIhj24QQQiqE5mQJIUSKKGQJIUSKyglZDehrv31+KkIIIZJ5R8haY9DCEVAK2g5a8yKEkMp5R8hG4tfFPyHHeyTo6C1CCKmccqYLMpCcVuGLjBBCCGFo4YsQQqSo/JBV1IGJGdsmhBBSIeWEbApuRNVDm9n0tVpCCKkMOmk3IYRIEc3JEkKIFFHIEkKIFFHIEkKIFFHIEkKIFNXT0NBYxLbfICcnB1NTU2RkZLAaUhW6T/8GAT3UsM2wD65OdMCjP4PxgLXVJjZtffDT0PYY2s4Ng9z1IH8/EjezRW2Wn83E4WnOeBrdBN+u9YH53bM4nyZqI5XXfcYaBHyqiu1vPHdMsHjqAMzuwv0d2jmieV40AhPyWA8R5XYTcGyFNzRPGGPGrsFwj/kHJxNZI5E6sSNZBQUFuLm5sdLHTbvDWEzqY8FKpVh8jhmj3VmhHC3HYrJtFBbNAfb0BPaP/hHHWNMHpd8U349uhRasKJlchJ/cg66Lt6Dr6kD8UhSiht2xuLMCTqz6B23GOeDhtq+xohLvIkY+4zHex4iVSnEcihlDHVmhZqvK584Um0jhuRPQo+RzJwEL13N/A/7vsPc+ngp1JSi2xNqBpri9dhPUF3ZAzh9zMCOYtVWAautRmDrAlpVK0fkMMyZ6s4L0tVrwJU6eXoA1vZRYjSc2Ba7B6dNr8Mt0dVZXc9B0QTm0O0zC9ObJ+PNgDKspgXuRLBininNbr7CKd2mG77gXx3djfoT9isa47rsca1jLh6WFMd1d0FCBFd+LPiaMaIz73yzDv937QnnfNEw6W/EjBI18pmOCXSwOHy1juMUF7LL+QOCOu6yi5qrq584GLliF504/SZ87CugzxQtZW2djqdNU2F4dA//fK/73UG09FnPbZ+L43nBWUwIXsHPnNUDIpiBWIX0Xl3CfBu/lshLvHCZ2nYH2O8ORz2pqErHHySorK6Ndu3Y4fvw4q6mtPDF+mj4OffsHHrMaSYleJI+wbeVBvPUyYS+SE7O2QpKXSU3Ff+xf7VEf2elxWLf1Iq6y+vLYtO2IEflXMOvSc1ZTNUQBG4bv1x7FWxHLBexSLmD3fbUDNT1iy3vuzOeeOyer+rlj0wKLdO5jURX+TUQBm4FdS/firYjlAnYOF7CXp21C9UWsiP/GWXA6tQEzDuewGo7/KGzV3YfRa5+xippB7Eg2Ozu7DgQsx7MlbDTZdgV8DAHLTxNMcXmJI4fuoyZMmZYXsPwIdt/82h+w/HPn5Oya/9wpL2D5Eezl6dUfsLVNzfnGl+dMbJvkBg2hkIxzSyZiY9GriWvbyrWJsvJ1m+eXWzGpeR4rW8N/1UL46D/EvrkL8MdjT8zcNgluoh2KJJ/Dkokby3+Rci+EOf2zsbesF4l2B0ya2BBXl1Tdi0QYTXqrIvj0Yzi0t+c+wANZUefxxa/3oCi06SL25EFM5UYo7XoNwKymL3F+x37sN/fBKg95JD7TREODLJwv6v/kDhZsKm9UqoUxQ72gF3QYy7Kb4vteqtj5IUeyXIh+1SUFP5cVsEY+mD5cDyeWVSRgFeDQeyx62yQh6IoyvNuYcHWFSLkWgC0nuN8T39Y4F9cCtuBErCraDf0CbQweIHDVIWRzbT0N05AgZwEz5QfF/fMfBGLVvnImNKv5ufOGqhzJciE6a7w8DpcVsKqtMXamC8IXViZg+fnTnrAXpqee4fp3q0WjUW4UGuhviLtHwmH8SXMY1OOaY4PQf9hR7hUv4r9pOfyFjvGIjFTGs2PrJRzJ1oPriKUYpnEOE7+t/oFjzZiTtfbHqtFmuL3ED35+fph7NBMW3mxhg7XdWdJPaPPbGIcm05egryFw7pvVOPqwaG4mEju5keW14oMhzmH1KP7+wUgM24cpfF9JApZj0bohDNh2adou9jCt4otFRJy9iOOxKmjDhec6fgFj8VHcVjNFe22+7Sg23Hr9ogk6HIhDsaLV44izt3ArTwMFt/7A5KAXcBP6H8WVAnU4cH3fxaatK6zCT2FZLKv4wBzdGgpvLmUxcrGDUdEah8TycO/oKdzLbsSF510sW7YMy9ZdRLaFHcz5tkM/4XwCuyte4N89h3BP+DVzbSdvI1FTFUlHVuNQhIGo/7rzeKypw/V9N4vWVtX63JEWHe9GMGbbpak6O8GiPitUSCMs2OuMh0NmoH17/hYEpbFjMF2fa9q5DXtDldCsnSL29ebbtuBfJSsM5ts4/GJXj5w/0EPodx25phVZRHiJkJ/mfpCA5YkNWSUlJXh5ebGSdFm3tofmwyAcYAkYuXM2prNhbHHbPTbgPncQ55MN0LSVIWRENVUuJmAJllwzxqjZfVB6XTjt1EbM/OEFuqwaDQnXhSWUjvN/Sj6SLJaThJvhohB+EhMl9C//o4kWvK1M0LTzQAQuHIPAcR5oaOiEJQv9saFlpV497+3ujvlYG2aHCdN9UPqYgsSjazH9N6D/sqFwrOgfveABTpU3+ixD4ZMYhAlvQAWIiZK8f0zAUsmeO9J68laRJwdWYM5pDQyZPwCljyl4ceFHzP76P7T8diK8K/LvaNUEjXXN4fOb6EiA06f5Ea0GDFsVvYNyI9ud+3E4kxWLNULHxjm4uDoEoqZzCI4sufBVs4kNWVlZWejq6rKS9GWmhFd4YUqa+BfEWjEvFu6VhCVSCdrq8hRbduwQHfbD3364jKjHd7Bg8U5MqeKFrIrgw/R7MUHLpTC+4oK231IuaFlVTSXJc6fzypr/3OHDdLmYoOVSGMu5oPVYywUtq5LIs9v4rkfRSJa/LXnzI38dVCOmCyIvhKLA0U+YAhDxxMwVk4QXE9+WbumNzxzYW6ZnH7TRT8Kti4/ZiE0Neraijtb+n8Cp5BxsKdb+0zGqAq/QmhO0itDRURFt2jiinXmVHG9VI5UXtPOLRrSs6r3IakJTT7Sp2qo5HKpwEF/ec2dpLXmTLi9oVxSNaFnVO128jft5Dug5puhY1kZY8MMg9FJjRbEeIPaJIdrMdOVe7ZxWfdHFVlFoqQ3EfuOLV1hYiJSUFFaSorRbiNHpirGTR2OAry98fS0RtWkR/uJnvLm2f1IdMXLmFAzm29zlcG3ll9gRLXTEC2NP9Oo9QOjnURiBh6rOaGFXiKtB90UfLeJk4TRgOEYM5tsv4Id9rF5C2Q+v4qaiFz5zScXV++mslkm/gzORdhjgp4KLIY9YZcXZtO2A8c5GsDJVRMTVeNj08kG/hgaw0s3B5dspuFmoBd/OnhjJf7vKKAO3UnTRykkFWUoW6OJoBhO5fJg4OKBxA2XoqxnC3Y6vS8DBiPIvHeTdawB+/KQhtOsbwLtdQ1jE3MNZCb7kp2NuhWaFj/BPqW8XVYXnDy4hTLsTetk8wrUHpUbWyTdxOtkZQ7oX4OLNoiWRsijAoYcf2pobwdwwCxfuZaDd5/3gZGgII+U4hESlIEWzEXzaf4K2bdvCreAhwhTs0dwiF+kWrvCwMIXKS1mYt7CFuYYaZBo0RhO+LusC7kn4banqeO68QccY7VRS8W8V/03y44Nx5WVL9GvzApfvPmG1THYo/t/efcDXePVxAP8JkRRFiJgJqSBGCEIUKUIrqS2lVbOxI7ESsSWUIKJqNFVae1ReMYoarbRq116xorFHxIgtId7nufdk54mb8cRN/L6fz30/95xz79XX+OXc/znPeXYftsAXvUti378plvqSuY9dwS/xqU9/eLl+hp49K+P+qoWYc/KVZtFq+qfS31trU0RtOYFio3qjZ42yqFLPENt+u4i9v19FlW+6Y/QgJ/Ss+wCnr5VCvVbWMN16EPtruWD1ot4YVNsUxSo3kT63AWyiDmLHOelzNeSFrykY2yw/ft8fJvqyD8+TpQzR7ogoB0017fkVrPk50VVflI3ky2pbwV7zDe4Fzu9Y905LPvrKsJ0XPKID8C7WvhiyREQqSnPhq0ABUQckIqIMSXMLl7Ozs2gREVFG6MXuAiKi3Io1WSIiFXEmS0SkolRC1grdfAMxy7sdLEQPERFlTCohG4YVvj7Y+tgctZmyRESZolAuuIv/Ip+J50RElFGsyRIRqYghS0SkIsWQjYoygjmLskREmaIYsnf/e4ziLQeiT13RQURE6aYYslYNSuHGL6Px8xHRQURE6aZck315H9lxlCwRUW7GhS8iIhUphGwJfGTKYw6JiDIrlZCVL6udCOcPr+HYVdFFREQZwlO4iIhUZGBiYgL5UajQW28ZSURE6ZRn5cqVmplsaGgoli9frukkIqKswXIBEZGKuIWLiEhFDFkiIhUxZImIVMSQJSJSEUOWiEhFDFkiIhUxZImIVMSQJSJSEUOWiEhFDFkiIhUxZImIVMSQJSJSEUOWiEhFDFkiIhUxZImIVMSQJSJSEUOWiEhFDFkiIhUxZImIVMSQzYEM6/XG8B7VpWcF0MFzKFpqu99Ceu3IQMwZqturiShrqBKyBT5fBrtebjAW7RTMx6DGhG2wbf+p6CCdFeiAoa1jsH3ZGanxDOt/vIKaE3tAjty0GNbrAstbP2Dw99tFDxFlB4OpU6dCfnTv3l10ZYNrfji//RxiRFNRoboIWB+AkD9GYEJDucMY7QMmICQkAH+sdkHDPJpXvUek2ahbeZz0WQY5YjWercf3mw3RUjOzTcsb3L8T/y4iyiYGY8eOxcSJE0Uzazz7vQcOLwnEC9HOsCdH4NX/Txx99AEafu0gdbzABi9/zDlwCCu6BGPfe3Yzc81sNOIPJJ+Lxhw/iceVPtWxbEBE2ckgNjYW0dHRoqmfos/8i9OlG4jZ7PvKELa25RGb2mw05jiOXy2OqkxZIr1jUKpUKfFUy9D+e9SZsA0NRv6IkiXzaOqrDZLUT+ugrJs0Lr8meV21aA9Yecn9G1GlSTXRmcDQfpb2s6XxylUKiV4dvLoE/33RYjablJnnEE35QPvww7yecg1BW1b4I2gQfpHLDdv6YpB43bZ5cZ+RUHqI68+TqPyQ8nOlTlG++GN1F0xfLMbiSxmywvCM65cf0q8rvy2eWSss2hk3Lj4zTlxpJH4seS3EEOWKSF/5r4tmEjE4E/kIJiWVSwaG5UxQVDwnouxjsHbtWvFUK+bgUJw7fB0PDszBnTtvpK/+3+PK8d9wbsMf0qg5TL8egxI3Z+LAJCfpMQZ3y7gnBOrDZQgLcMKR7Welf/bJvsubj0GVj58gTPM+d9x5ZSLFhu7u/rQn5WxWCiZv+2dY6ugFR/nx1V4Y2jWWBl5gg/8RXDcpgCszxmHO6dJoY3lUGv8LN4qbQf4Is+F98eWj1dr3OY7D/BefYNX4SpqPlT/X0+o6xonPbTsnFHnLS2Oa8sVfuGZmg4J/i7Ef7qD2BClMpUws1L497J9uFJ/pha925Ee9uCCVQ/SnRni2bIT4zHMwqxcX+FI4z3bEoxna9zm2DcbzNl5ZNnMv0GEkppY/Da55EWU/g8aN5VBK6tm+f/C61mDNTNbQvi3yXBD11aLNUNT0Lm7tlwNXdhQRR8JhbNlUeSeBUMDmI8QcW4VHmtY1RF269vaFr8SkgNPOZhMljxx6nRdia9ys89dmKJ9oAhgb+R/+3Cc9eRONsEO7tZ0ahdG9hgVKNu0vZo6TMbiOCUzMxKz+yRnsf1odk0OmY/WESniyYQUGTrqoHZPE3jmCVUu1z5/8eQaXnhZF+Y+l5xuWobP7ifjZ7K+ty2pfJCnUojosX0jvW6b94aN9rfhvMnNADcuSaDpZzGR/64K6xUxgJjJfKwbXo/KgWDnRTMIQ1U0L44HCwtaz9dMx+koNcPcWUfZLfQvXw7/wMNIMpZv6oLxtXjw5J/rfsQjNbLY+PjcRHeIr9jJ5lirPAKWZ6hWdF8OiEbpUzBzFwyku9DQLbJOkPh+s+bCLFHzJvtorKNS+B9aHjIKlmOV+tfmGGNF6fS8C+8XzFKLPJ8zINY8xcBdBrhWD48evwCC1koChLWwt7uFsGjPVmOsP8FA8J6Lso7BP9hoidx/Bqyq1kfdc3OxTognfEij9cUJ91qyuJV6E//3WnQQx956gYO2vpTmkTH6fdbrKBRqa2exzWFlqP0U7O9yPSZpwNEZ777pJZrLKHmH56QhUcXLRlA5kZp6DMFcEaaH23fCjNIPVhO2IScm+2ku/aaYfoYV4o1n/xqgVLc2Y9xujRWNzvPh7sTYcpR8AIxonzGTlGe/V0g0wXprxahWG5wJRs43YjdO3rOCk+TVlhTH8p2T1XEnModUIN0u5i8DQtiY+vJhy1wERvXt5KlSo8CZ//vzo1KkTli9fLrpldVC2T1+82jQQd+6ILg154csP5qba1ouTM3FcU6+VyAtffb6GaQFtEy/DEb4k4f0FPl+KmnYlpWdRiDh+C0VtLfF012ic3xWqfUFy8kx1eRfUKfIad/7+GV3kr+xy36I6ONV5IZbKQbV4AlqVl18svWbPX7hh0wK1XhzC5htV0K6OMUKD96KgSzOUu5Oob+kYeCw1RrsAbwyuow3s6NCNcPbYjTfyTNisFRbLpQfNiOT1HfztMwOT5NKDNPbz3ArIk98SlkWktjwDdZL/W7Rj8e+T3rNn8x3YtKsuBa/2v12e6S4bXFMsQMkz6USz1fj/r3JDHhsrjaUyLS/QAV79niEgrsBqWA+9PariwHeJ9s6mQr5KzKPqAXynuYiBiLJLnpUrV2r+JYeGhiYLWUqVHLLfG2PR18GQM/ddKNBhBEZ++Dt8loWjg9dIfLjVB2/NTimM+078BjYRG3nVF1E2ymNhYaFzFfO9l2i2Kc98E2q4RESpY8gSEamIp3AREamIIUtEpCKGLBGRihRDNl++fChfPn4TExERZYBiyMp7Z+3s7ESLiIgyQr/KBdbfwtbre5gW1emyrZyn0VeYssEfP8qPxV+hlugmotxLMWTfvHmDZ8+eiRZlXjX07lMUBzp4Y2B7b/x+rw4GBLQQY0SUWymG7PPnz7F161bRyibnxuN4wFBEPkzn1t2SbrBoUUc09FUZFDMxgZk482DTqf+0T4goV8sVFyMYN/kRlgUX4uzvR0WPWqqjx8SBaFAi+c+mhzi22AcLD+l+eGObAH9Yn/LGjCQnbRFRbqMnIVsVJXtNg6WFEaLDVuHUqmXxZ80Wbr8G1axu4copI5S1t0Q+qe/J4TE4LQeqNIOt0qstTIy0r5Ulf7+iBgvQf9JnKCl/oOTxcX/86BmIF2r/bvQcgB87fIQHB5dgzNRkB+OUawuv4XaIWDABy/TkeEkiyhzFkDU2Noa9vT127dolerKBFJofOTzBtbWJQ/JTlB/qieIRIjzlYG1TFNd+9kNcxTgjM9m6sw/D8p+WWBt8T2o5oeWPfXBrdCecTG+pIoNqjR6NAcUPYaDXn6KHiHIjxZqsgYEBTE3FeYbv2vNzuPr78rfPTtPhyBA7rL0xDf13XMaEkPmwL63L6bZyuWAeAgMDkz380Lde+k7HPTF1Iw4Xt0Ib0Sai3Em/tnBlo7qzz2HCKDPs71QBkxwH4OAtXSL8DJb5uMPNzS3ZY8zb67GNvoLfhgFoE787TSyENRJNIsqVFEM2JiYGZ8+eFa2co3BLH5i+9basI2BV6R72DmqHk1FSs6sHbHWayWbSg4e4Kp6ipxU+ehCOw3tFm4hyJb1b+NJ6isjtQxF28Jp24atmEbGgdQjFxOviF79kiRbAkvSnofyY/ejWojTyyo1rmxES9Skca0Rib/dG2Jn01lxZp+cABHb4CNrJ7H/4vf18bNI8F7jwRZTr8DxZvWILV6+a2BewDMxYotxBMWTlhS95hwGv+iIiyjjFmqwcsM7OzqJFREQZ8d7uLiAiyg4MWSIiFbEmS0SkIsWZbGxsLAOWiCiTWC4gIlKRYsgaGRnx9jNERJmkGLJ58+bljRSJiDKJ5QIiIhWlufAVGRkpWkRElBE8u4CISEUsFxARqYghS0SkIsWQLVCgAFxcXESLiIgygjNZIiIVMWSJiFSkGLLR0dE4fPiwaBERUUZwCxcRkYpYLiAiUpFiyObLl49nFxARZZJiyObPn5+ncBERZRLLBUREKlIM2Tdv3vDOCEREmcTdBUREKmK5gIhIRQxZIiIVKYasfDvwJk2aiBYREWWEYsgaGBjA1NRUtIiIKCNYLiAiUpFiyMbExODs2bOiRUREGcEtXEREKmK5gIhIRWkufMm3oCEiooxTDFl5C5ezs7NoERFRRrBcQESkIoYsEZGKFHcXyDVZuWTAk7iIiDJOcSYbGxvLgCUiyiSWC4iIVJS3SJEivuJ5EkZGRqhduzZu3rwpeigrfO45AyvbFsLC0h3xr3t13Nh0GBfF2LvQrH0XzP+yEbo1tUM3GyNc+PcabmhGTNDHZzpmNn6GozZ9se6rkji947QYI9j2xIZZHWC9xxA9fvJAq6d7sOlSDKo7u2B51080v5+drd7g1LFbiBBv0aqJgMDJ6GMWglIu8zDZ/h7W7rmOV2KUch/FmWzevHl5I0WhWPMB8OhYQbSSqdAVXv3sReMtPh6AwVUuwXc0sKodENRvPn4XQ+9OFPYs+QlOE6XHvH34V/SWbuuKToUPYOSvFTC5fgQCPVfHj+muBD4b6I52FqKZjFU3L/SpKxrZwbgB+g7riqqimVQRuHgNRgvRSls1+LnaIGLJDFwf0AFFdk1Bv+1PNSNntgZrfy8nrkVIpKYrieZDvobN1UXo9WQQuhjvRKdp+/FcjOmuFly9XKX/TV1rLy+0Fs9VV7MVFm8LwG/zHFBGdLXxn4CQkACErOoIG9H3PmO54C2KNfeAZ70IbFp3WfQkIgXshIEFsXvBQdGRljqY0xaY038+qk2tiqOd/BAgRvRO8U/hU/cmxnvuQ/s+RbHmmzlYJYZ0JwXskKGwvfkbNl4VXYlYdfNFb+O/8PMR0aE2KWD7j2uJZ9tWIuWJHFLAjp6Issfn4E/RkxaHQW1QdIsP+hsNgOPNCXBZmEqapsauN1yNNqL9tGL4sfZlOI8Ikn7EpZcUsJM7A38swgnRk1hrr0BYnwvAZtFW3ckt+OaHk3gimrJN3pPg6LgKRxJ3vscUdxfIOwvs7e2xa9cu0ZNTOcBtuBnWfxeMW6JHV9qAvYGF09YhRcSKgN0+cgF0iVh91az952h07HdMviI6soQI2Ms/wT+VhLXq5iMF7GaMzq6ElQN2fEs8WTERK1MkrAjYQ0MxR5eE1VlxDG1XHn9uPIrToifzpICdIgVs0DgsOpHyn602YN0QkG0JK7TpgVUtw+HlvhsJxcU6mLGgApb1W4dToud9pTiTffHiRS4IWInDx6hcVDxPhxwRsGa1MG9Uf2zzSfbwdsI3xcRrst3bAlaewepRwI7yVSFg1RAXsGNTD1jPH95NwNJb6c8pXA7eWOhhJ/21l0Vg9yR3zI2bAkhjC6QxbVYmjDmMWACPetGibYWe033Qyiwca8ZMQPAtB3gv9ICd9gO1InZjkvvct88spBAd/dVzrE4tYIs1h4d7Rfw7KWsDtvInreDfrByMNa0XOL9jHYbsf6xpqSmrZ7JW3cag4+MVqQZsic+GYKDFHkxKb8Dm64b2QZNRU/ywfHNvD1Z16oZL2mYapBD1HgrjTakFrDEa9B+D+pd8pIBV459A1s5kW3tNgdkfcsCKjkRquU7BpxHjpIBN//+PNjN8MKzuh5rnT0I3YoBmNloH/hu+hvX1v3GoYEM0K59fGr2Dv4bOwLcnNS/VzF43DqsJ+Z23w8KB6JO6z2SrdoWPmwVOj5+K4IeiLxfTj5qsVU9M72eBk5M6o3Pnzhiz5QkqNKuRZOzUpC81Y53nXkVNz0lwKQ3snuGPLeEvta9DGJZKM8tD8UWu3fDvK7/+MG6eW4Mh8nt1CVhJhUYVUVI8T65Y7WowLygaWaYculZ7jY1zxQLUj8fx0twCOW/Z0QoNrEqI58mVQO2q5fCB9CyPtkNn+dx6o9yZ4ZjkWEF6VML/wkqjalMxmJYiLVDZXDxPztgWtSoUFg191xrWH4mnKdRC3Yom4nn61Bw+BF88WoTmjl5wlB4LnzsiYLz8G3YU3r+cxJtqdij5l79mbOjmaFi1E7+Z8mJXr/wI7qZ93+ooUxTSjujm7EpM9Hg/AlamGLLyCVwuLi6ipS6rRtVQNPwvrBUJGLZ0FDzFNDZ+7Iz4Kb17HfZElESthqXT/Y9VV5dXTsKkQ2XRd1RHJN9TcH/nXHj/+BQtp/eDjnsKdHAdPvO3YW+NVtggf90f2ABW8uThbfSuXBCGFb5+OF6hP7xTbCm4ix2zR+CXF23g1yd9WwpezWmGeRMLoP26y5gQchGd6+sYKlHBmDpiOwp180HX5FsKXhzAT6N9cMPuOwzWbUvBO7QZAW5BQOcpcE2xpeAEFo11w7kq8+CVri0FFmhhUxLmzYZgp7wTQHrIM9pCJSvE7xJ4GroTfstSJmHNFlYwOL4dy8S0ddM/4UkWvigpvdld8OTu+XQvTKlJDtOZCkErpTAmZWnQlsPEof0xzeIyhmhmsgcQFi2G0hJxAu7TxOw38cN/GxbfF6/JdnKYfq8QtFIMr/CVgrY1pqYjaPMN/gsTtg+XwlY7kw3694EY0YEcpt8qBC2iEDzNFzfqfZ8DglYO07igTTm92DxzEM5ZB6YzaJ8idMnk+Jms/Gib5Cs/ZQW9CNmwvaF4VaOzpgSg5QDvqR6QCwby2EPLZviiuviL5dARjc3u4MS+W9DObQuhRBXtG616toZN4hpsMlY9PdFXVCF0kW1BW9kSlV+dwrQVZyCXRps1rKbbTFZvvS1oJ2pmtLoFbUE0rFke/wXVwea/paaxH+x1ncnGiQvargpBO1Wa0eakoO00OZUZrRS0AdKMVuegvYo/Tz2BlZMjbMQ/rZrD+2Bmj7evEp+8+ABF67VED82U1wLDO1qnr1zwnlG84uvNmzd48uQJoqLSv5Mv3e6fwOXiThgwuB+6dOqETp0scWmeLzbLl8pIY39G1kAf7yHoLo/Z58OhaSOw5D/NG/G0rAPad+iieV+D2AsIL2iL+tax+Pevs9qvMFcNYNPFFb27y+N78eMa0a+j5+H/4rhRE3xROxL/nk321enhKewKs0aXzgWw70gmroW69xim1RrBrZ295koh6xtHca5cIwywS3wFljosrSvB4vZF/JPlf8zPcOngKRR0dEGNiH9xPtnn3z/5N65U64qOhvtwNM2vMDG4Ft0ITfvPQMueQ9GkS34c/S0GDfv7wNx4Nk7quob26jqO7HuJBl2a4PmBU0i6s/Ulzu7Zj3Id+6PsvoPQ/NXKtAJoYF0U/51PfsVXZt3BsZB7qN29FWL3HZNaSV3YtwXF2nqh8r59uCD6lNzZfxBRDTpj4qg26NnzMzR+tRdjp17AY3nhy78FKpcrB+s3x/H7m+aYNqAWLKwsYXF0H/7ZfQKhpR0wfFQnuPasjlfnrqBw7cZoZnEWwf8UxbBFI+E3xBZlipnDWfpcl3rP8c/Wq9LnCvLCl09rmO7fg7MvRF8uxnt8vefky2pH1hILQPdOYUKiq74o/eTLamfW195KP/r6IYz5JSv3yeYWLTDYqwiWBgRn4GKMnIchS0SkIsWabL58+Xh2ARFRJimGbP78+WFnZydaRESUEXqzhYuIKDdSDFl5dwHvjEBElDlc+CIiUpHiPllSB++MQGqo0X0M1g6ogv8e2GPB5OYodngvDj7Kj0GuffBtW+nPtmkdfFboFjZcTLZL3PpLBM3qirqhz+Eywwud8hzGhnP8BpuVWJPVAe+MkNPvjJAXDp7D8aVo6Y3qPTC8dz0YimZSLTHUqwMKiFaaPnLBWIfXWOt3DF/0qoDTs6ZjznV5IBo/LBJ/ttMOaS6ySPq1tSLG9amHZ8Hf4UjHzih7dDZ6bdDxAPLEKnXGkH6fIPXjdhzg5tUZpURLbRau/bA5ZAp+GVJW9FjC51ft2Qzrp9UUfdlLMWTlQ7ubNGkiWu8v3hkhZ98Zwaj7dAQFrYZHvWJAHrWOFMoAKWAnfm2E3csOIUZ0JZACdo4trgSux9vnlBbw7m6O/ZOmI6xLS0QHjoTncTH0FnV7d4D5nmn45tFX6PB4DtrOy8C1blLAjutlimO//oNHoiuBFLAzmyByRRBuix61XV20AL67Ev+gCMfEr7zg6H0Qd0VPdlOsycqncDk7OyM4OFj05FTSHzTvjKDovbgzQl4HjJjXElfdxmPNGz1YgpAC1lcK2C2+C3EoRcKKgB01Heuz8lu7kS18W9yB75YsPIZJCtixUsDunh6If1IkrAjYGZMRlF0JK9j5DMPAh0HoPTtRccuuExZ8cR79RsUdiJt9cn+5gHdGyGZ6dmeEt2k4AP6B/nBvlspfkopfYMzsQIzvonQobQaIGWy2BqwaxAxW3wJWHynOZA0NDVGpUiWEhoaKHpXxzgi8M0Ia5K/9y9tYilYsLgR/hXFrpRlqoPRn/PogDj+2Rz15+E0k9s90w6zEBeS0ZrJyyHb7CFf/54d5fyU7AEgO2cGOyHtgKr5dfU10SmoNxOxRzVA6r7b56MQvGDZle8IBKIqkEP3WAnsnpRaw1dHD93M89p+hTsBm6UxWClFfG5z+LrWArYTOY12AX6ZlIGAtMWH1IDTVnJj/EuEbA7WzUWkW+qu/LZ6GHMTLBp/AWi5URx2Hf4cV2Ca/VGLnMxLTm5RAHkQhLOwJ8p7RfSZr0c4bw2rfxA++KxAm+rKS4kw2JiYm+wKWd0bgnRHSIoXkYOvbCJD/DKVHl7lHkKdMfeD1bswYvAnhxeuhyFExNi8c1sMn40td66/75sPbzTtlwMourYXfELekAStp074GIpb01v597DwFR4xt0VB7B5e0tayKj0Qwp1C9Lj4yzSFfLB1sUFH+g0xNpdqoZJZPNNKjOFwDXVBgadzZtj/j6seumOYk/X05/D8E7HoEy0blcX6kPDYVK26WQlNpTCYvdo22OIHBzeWxFbhRWHtAj66ubvTHMJUCVqYXf6q8MwLvjJCm1/tw4KE1vILWIHBYfSlbZ2BsoqlqbORB/LZG+/z1vgMIiyqGMvW0bTVsmjgIU253w/erghAUNBbNSusYKtu/x+CVL9Haty/qJd9ScGYZfN2Po/y0keig05aCd2h3IDx/jsQnI93wSfItBReDMGXILpiOGIfO6dlSYFEDdhalUN9buxMgJGQQmpgZo0SVuF0C0Qjftg6zz4hmvOJoYVcYF/+3DaGaiAjHlrMZ2CGhIsWQNTAw0Cx+ZRfeGYF3RlD2WvrW0l+aNX6N1XldpWD7FZPf4X6sNj7LEeRRDFsHaGeyf916JUZ0IIWpz6qXaJVa0GI7vh+cQ4JWCtPJSyLhkFrQSt8iAz0zELQvr2CjR9xMVn6M1Xzl14OlykxRDFl5C5e8uyA78M4IvDNCWvI6jMAUaQarCduAAZpyQXGbhJQ1KF4JjeRhidHXrWH3+iL2HtLxn2a6F77aoI5VBHaMnYLtcj2yTXs01HUmG0eetUpBm+qMNocF7RQpaFOd0aY3aK+exuE7JdC0e9xe1uJw/a43hlQXTUX3cPJOXtTq5ARNRFg0gWu99JUL1KYfRaCwpVi4zwjtZ8tfv+THl3i+UtRPpbGRC67CZsIa7ZiHBU7OlBe2NIPYG/oQll/O1oyNrRiBS6+s0XqgC+Lzevd+3Cj1JWZrxi9jsy5F2US0QWuGNqldjCCC1kHXixGUXDiNv59UxiTxdb/3qzM4ZdoYP7k3hMiOHEgEbZm2qV6MoJ3RNtPpYoTX/95Gvo+9xN+NIKx2t8SFuPqAJPZ+FMx6a8eWt4rBOrdZ+FdkrGaf7GoP1CteGS5rftWUGzJnEzbsy4fmc8Xf1aY3sO2aNXr/MhN9lAr5qREzWoceqV2MIILWTceLEd4lMaOt/VVqFyOIoO2my8UI97DIbTGOle8hygXD0ejKNm15wK4TvJqUhaVTR03oWri6oEPVUqjfvxvksuzhiT/jfy8bYs5O6X0/1cTDC49g2U7Uc6XQDdws9fvbw6q+/NmJL1TQkhe+Zvl2g5VoZ7X3YJ8spSXH3xnBqDv8vjPFhkFSsIouiiNfVvsN2mgm4rGIOLwZPbfEfQOkeHX7wLPq35i5Qp2lL8WQlWuycsmAJ3GR3pK3ZgVKs1QTKUIuBOOrcQmzWyJ9wVO4iIhUlEM25hER5UyKIWtkZMTbzxARZZJiyObNm5c3UiQiyiSWC4iIVKQYsrGxsYiM1K/L04iIchruLiAiUhHLBUREKmLIEhGpSDFk5ctqXVxcRIuIiDKCM1kiIhUxZImIVKQYstHR0Th8+LBoERFRRnALFxGRilguICJSkWLI5suXj2cXEBFlkmLI5s+fn6dwERFlEssFREQqUgzZN2/e8NYzRESZxN0FREQqYrmAiEhFDFkiIhUphqx8O/AmTZqI1nugShcM7dsIBUVTSfUew9G7nqFoERGlTTFkDQwMYGpqKlrZpSamrQ9ASIj02NwPrhaiO7OcOsLPtbhopKYZ3L8ugkOr9uKppl0ULfx88OMGf+kxGaP7mWt6ZWeWbUdMq6HoUEB0EBGlQa/KBU7TPkPhTVPR3HEWNt4pAbsWaQWjDqo74ZetUmB720qxqayZe13cnjMfe7UJi2JfuKDRi98wsL03Bo4+gvyf90L/T7VjUsxime9JlHfrAOYsEb2NYsjGxMTg7NmzopUdyqJKide4c/Ie3uAGZveeArdF98RYBp3Zht7OXvA/GCU6UlGlC2q93I+tiX6pIuZFYVK8FCzlxtnDCLut6U5kO86+qoOuLBsQ0VukGbKhoaGilXtVqWMFowfnRJlAK3zWTAwdshXhcqOqHawKhuPEH5qheNvP3oOFrS0Ys0SUFr0oF1Qf4oGtIcPQzrIsmvjLNdlJCNTUUMtiyC9TtPVZzTEKomb7ayfIF/xq3zcSPoO6Yb1cx5UemwObID2l3DLF8yHq1gvRSswcXef748eJ5XDabwUOiN541+8jtmi51EO25VDM8esLTnSJKM2FL/kWNNnhzOy5cJbrsOE3sMvbC46OE0SpQC4brMG/8d/2T2LUuD8RHq1tnZm9DtvCC6OJw0tMcZTftwynCldBiyxZMLuGlQO8MdDjGMqOHZ+oJquD7d9j8JiFOBQj2kT03lIMWXkLl7Ozs2jps0jsCvgfMnq8+M17r1CktLFopeLOHqzYcBOlPq4tOoRyxWDw8DqYo0SUFr0oF7xL54+G4aWJdaL9sdrtW/4TEkI1yUKY0LJqcVw9fpwhS0RpyhkhW8AE5iW0T52614Nlfu3zLHF+NU4YfQznJLvFovHgdqR4bo6GVUxw58xp7UKYRktUzXcUK1kPIKK3UDwgRq7JyiWDbDmJy6kb1nvboohoIuIgvL9KKAE4TRsP7/ra0YjjR/C0al0UPPADvn3YGgHtysNIvN5UvO7ZuU1wc9uFq/I+2YAWsDTSvDXF5yZoBnev4lgdsBbanVzyopcHGpfSNPD46Gp4TzqmbUhaDvVEgQUzsV7pt0Ze+GryFMt9WJclet/xFK44zdzhW+UYZsyPu+orddV7TMTnj6djhmLCSqr3wPAGZzH3l0MsJxC95xiyREQqUqzJGhkZ8fYzRESZpBiyefPm5Y0UiYgy6b3fwkVEpCbFkI2NjUVkZNw2JiIiyggufBERqYjlAj1Vrq073JxKipaSCujoMQDNi4kmEemdXBOyVj090beGaGQVm45YuVN7ute2xa1QU3Rnls2ILhie1ofZuqJXxTAEb7ujbRvVQr8l8l0apMe6Eehhr+0GLmPdpgjU699Vilsi0keKISufwOXi4iJaeszBGwuDguDXyhJpHPOSAeYY72WOI8O84NhtI8IKW6FFJlO2TI8+2CgF9uzmZqInNbZwbfEKa2dtgzZiDVFvhDMKbvfW3KnBc+tzfDyiL1pqxiSX12FaSEF80ZUxS6SPcv5Mdrc/+nYegy3hL0VHFilTASUNH+DiKen5zd1wd5mN705qhzLq5rKf0c5xNv4SE9TUlGvbGMant+OcaAP5UM60KEzKVkYeqfVsdRiuaAcSHDyBRxXbsGxApIdyf022VGeM/WE2xnWuJDoSKfwJ3KYHYqabg+h418qhTuUieHI5cQo/x/qhozAh4ALkFcoCXaxQ9tIFbNcOCgdx4rYJqtVmyhLpG8WQjY6OxuHDGT2lNQPE1/4g8ZjnIRdYrdBz+nIELZ4ET5+FYmwxJrmU1r5HFUXRY54vQla0Q7VSNTFMrsluG6KtoZZxwLzfEtVnbTpilfT1f+OMOsiTR7xvYw8MGj9Ce8fdED8sHp6eE8RNYfrBM0Q8EM3ECjlh5Hp/zKh/Gz+N3CU6E9yJjEahUoVFKyn7ftPh79EcjGCi7KcYsq9evcKVKym+mKpEClNHQ2wb0hmdO0uPMVtwt3AVlEYYlo5cgMOvrGF5f7YY+xtG7cdCk8G6uB2EKYOGYHLQRdGRyKN/EDjSDZ6Bu0WH7CGWuftq6rCht09iVnMvODqJUoFcNhi7D/H3VTy1Dl5L4u4PJr3PbydC89TEZ4V3wlG+U8OQwzCwscmaBbMn2zC9gzeG/mqErmsT1WR1cHDBSHjP3Yn7ok1E2UdPygVh2Hu5MNrPDsLiSS4ofWkpJk4Jxi0ximfn8NfaM9rnYXsRetMQJaqU1tQo9c6Tk/h5xFHRSK9IRD4vADMT0UxFzM4grDteHNW6iA6hpGl+PLn9SLSISF8ohmy+fPmy9eyCsKUj0V2aqU65VB/T18SVC94313H0QhQKVUi0P1azfcsPw+JDNWEhLIE9apV6gNBjnKsS6RvFkM2fP3/2ncJl1RM+Y6UZrPRUDtseY7bgaYVmiI/ZAuao1VCcoO3QEY3N7uDEvluahaC3UmHhy9CkOLQ/fszR2ynxrWsy7/pve/CiRktYi7bGmwe49594XqgJqljcQ9juC6JDYl8LhS9twk5mLJHe0Y9yQdh/eF7hS8yOW/jya4qX+9bitBjGs/sw/MRfO+ZhgZMzJyA4rpagWTDzQytLczhMEOUGMZRRNvLCVaKFL3lhK96pQzj7VOrXLGy5ouTlc8hTtw38WxeVfjg017ynj+b15hg3qiHMyzfCMLH4pd0nOwTNzM3R+vtknxvvOBb9mQ+teoiYfXkCCzxOocxocTHCik/w8n8zsOygdliexfZzeIq1Ky+Ldkpc+CJ6dxTPLvjggw/QtGlTbN26VfS8Kw7wnv0pLk3zkYL1/TlmwdZ1HJrdXIhZcVd9paoCOo7sgg/WTEUaGYsKHT3gFLUS8znVJcp2en5AjLyFy0eapRoBEbsxyX1uwuyWiCgH4ClcREQq0pMtXEREuVOSmWzFihXFM8DQ0FCzhSssLEz0EBFReiUJWWvrhI1DcshWrlwZZ86IiwCIiCjdUoTsvXv3NOcWGBsbo3Hjxvjzzz/FKFH6FW/SA22Nd2Lx9huiJzUl0byXM7B1CXamtZmCKAdKEbLh4eF4+fKlZiZbqVIlhIaGilH9Jh/a3ezITCzUi+0HZmjv2QmPZv6AENGjK7P2nuj0aCZ+SO8b01K2DZYsawKLPMCrW3sxoet6HBBDmVF2WBf02r8aU5Q+zKobRnd8jJX+G3FV02GNXj9/A3tT+YLohzg6azoW7nqtGUGZVvB0LYHtk5dwBwnlKooLXzExMTkjYFU7tDtjqgyag6Cgefi62ofSjzDRqYsqgzBH+v8x7+tqkN6ZhUww4tsquDjWC44d1uC0cUU0byCGMqiISy+sDwnAcueyoic1VujW3hg74gMWqOndDiX2j9McPj5w7T3YDuuPdkZi8OYWzNwAOPV6Hy+nptws5+8uUOvQ7gw6/8NgdHZfhVDt0Vy6O/8DBnd2x6p0v/EtilihdMEHuCxfIRZ1CMNdApRnnjqKCl6CDo5TsPW66EhFic8+RdGLO3BEtGXlTE1gUsoaeeXGigu4FKvpTnD6MCLLtUSrMqJNlAsohqyBgYHmFjQ5Xo46tDsNBTrA+4d5mNijuuhIxLAe+voFYs7Q9ByAqKYSqF21BF5cj5vDav3uPQpjppyCpkDQrTIqXg7D70l+Np7G4esfwLo2U5ZyD8WQlRe+nJ2dRSsb6M2h3Vrar/1x/z2/YJSj1GnWHr6LgrB8hifGzBFjy2fgmyra9+iXD+Dy3QSErP8StiWqord8+PgOL4yVSwVF6uG7DQHYsbIDNJWDsm2wVPr6v3VOI+TJI963tTcGjRgmDh+fjpVjreRX6qgIzAq+wN27oplEMwwL9sePzR9hkfcOxIjeOPfvPscHJVI/ZaFGr8mY6dkKjGDKSfSkXKBPh3ZLpDB1KXEM4+VfT3q4r7oE4/JSkkZsgO/0XbhvUQ2xG8RY8FPp58MoOKp9uO2z9fAf5A6fZalsqYs5hIVj3DD4+8Q3pXmO4OGTNHXY43fP4hf58PHPRKlALhsM2oVrcUueNzZh8A+noT2NVnrfxK04/rIqWpv/qz18vPsevKxmow3kTPsLs1y8MXDBa7T/n1tCTVYHp5eMg+fMLbgp2kQ5gZ6ErJ4d2h2xD6FwwLdByzFDmqZGbPCD7+LzYlDKtKt7sF6s/kfsO46rr4qjfGW1UzabvTyLFYP3ikZ6RSHiqTFKlBDN1OwPwv/2f4jK3QxFh1axEh/g+V0eZEO5h2LIvnjxIltP4NKvQ7sjsMHXVZqpemKvhXdCuYB0dBfHzt6FcbnE9zeTt29Nh3fvhFBNshCmUQN25Z7j3DHOVSn3UAzZ2NhYPHv2TLRUpmeHdpu1HwNfTaFVCtuJveG+6hrK1E9IWcOS1dBQ1GGrdHJExUeh2HdBp/+ajFNh4StvsWLQXkhtgn5tayD12zBmzN0df+Bhpc9QV7S1HuJBWNyWgmawtnqE8D2h2oUwWQ07mF7fji3MWMpF9KNcoGeHdkecjUIx52+1v570mOdSEMfi6gOSmIevUGOkduzbOjexeMRinBcZq1kwm/c1qpWqgwFrtOUGnWj2ycr7a0uhzgB5ce0bZHY9ray8cJVo4Ute2Ip3Yw9OR1ijt2Zhywsf3TiNlzU+x+yvP4CLj7PmPd00rzeB15RPUKF0A3iIxS/tPtmxcK5QCs39kn1uvDCs2PACTfvExew5LOlzAB8Omao9fHyDM/JtmZFwMYL0I7WXE7BtifKlCFz4opxI8YovIyMj2NjYZO9twVOlZ4d2S2EY0OcZFsrBKrpImVW30ej4eCX8NybdzpVUGbQa7ooSOyYjjYxFmVZuaI8NCORUl3IQxZCV98jKW7iCg4PF6LugZ4d2y1u4pkmz1ELA46Pz0Xuajte+JnpfCi+vYOtkbyyOmwoTUa6SImSjoqI0l9TK+2Tt7e2xa9cuMUpEROmVImTjyLcENzc318xsiYgoY5KErHxINxERZZ0kIUtERFlLT674IiLKnRRDVt5d4OLiIlqU3cq1dYebU0nRUlIBHT0GoHnq56kQkR7INTNZ+c4IfbP6Slybjlgpn14VEoBti1uhpujOsESfFxLigxltRH9ytq7oVTEMwdvEvViMaqHfEnkDv/RYNwI97LXdwGWs2xSBev27SnFLRPoo54esandGMMd4L3McGeYFx24bEVbYCi0yk7JlHDDPV3yeoxe6LbmBKn16IGXO2sK1xSusnbUN2og1RL0Rzii43VtzRwHPrc/x8Yi+iL+A9vI6TAspiC+6MmaJ9JFiyMo3U3z3V3vpQK07I5SpgJKGD3DxlPT85m64u8zGdye1QxlmWBSlxQaOm3+ex9VXJqiULLjLtW0M49PbcU60gXwoZ1oUJmUra04de7Y6DFe0AwkOnsCjim1YNiDSQ4oh++rVK1y5kuKfc86jL3dGkIO67USM2CTaspdSiCcJ7nKoU7kInlxOfMvW51g/dBQmBFzQHIhToIsVyl66gMQnx0opixO3TVCtNlOWSN/oT7lAb+6MUBQ95vkiZEU7VCtVE8PkGuq2IRguzzjlr/y/JarP2nTEqpAAbJxRB3nyiPdt7IFB40eIuqsfFg9PfNxfApvedVHw8N9InLmAKUw/eIaIB6KZWCEnjFzvjxn1b+OnkSmvwrsTGY1CpVI/R8u+33T4ezQHI5go+ymGrHzFV/ZdnKBPd0Z4iGXuvpo6bOjtk5gl31HASZQK5Nno2H24rX0hcGodvJacg/bWh9L7/HYiNE9NfFZ4p/aOAkMOw8DGJsWCWZkefTC68D/45ru0Dk1J5sk2TO/gjaG/GqHr2kQ1WR0cXDAS3nN3gkdhE2U/xZDNnz8/7OzsREttenZnhMx4chI/jzgqGinJATu32S1MS/U1kYh8XgBmJqKZipidQVh3vDiqdREdQknT/HhyW3sDGSLSH3pTLtCvOyOoxKYj/KSAnfjNFsgT4zIdP0WPJNPc6zh6IQqFKiTaH6vZvuWHYfGhmrAQlsAetUo9QOgxzlWJ9I1iyL558+a9vTPC2xiaFIe2kGKO3k7WKKh5/hZyPXd0IQS7agNWrv22aFQepprnCa7/tgcvarREwlE9kjcPcO8/8bxQE1SxuIew3RdEh8S+Fgpf2oSdzFgivaMnZxc4wHuhB+yKiCae4tyaMZiguf2BfGh3e5jADBVLy7c2jcDuSe6YG3ewrLxg5mGHuLc+PbcGYyYkKjXIITu+EfLsmpeyLiuH7NivUPHK6iR1WZvxIzC7WcJs8vGRVWgX//XeHONWDoGjZu3tMUIP3IBFg7I4P2s2TrUcil7VConX3xWvi8aVzfMxNvIzzO9ljSRHyj4+iVntliVb/JLYusKz5j7MXCY2chVywqgVjiLYX+GC9Hsza7WmIbFHPy8r7AhYicuiJzl54cvFaAemsS5LlO1ywAExenZnhGxi6zoOzW4uxKy4q75SVQEdR3bBB2umYqVSwkoqdPSAU9RKzOdUlyjb6XnI6tmdEYiI0kkxZHlnBCKizFNc+DIwMICpafJlGSIiSg+92cJFRJQbKYasfDPFs2fPihYREWUEbz9DRKQilguIiFSU5sKXfAsaIiLKOMWQlbdwOTs7ixYREWUEywVERCpiyBIRqUhxd4Fck5VLBtl2EhcRUS6kOJONjY1lwBIRZRLLBUREKlIMWSMjo2y8/QwRUe6kGLJ58+bNxhspEhHlTiwXEBGpKM2Fr8jISNEiIqKM4AExREQqYrmAiEhFDFkiIhUxZImIVMSQJSJSUSoha4VuvoGY5d0OFqKHiIgyJpWQDcMKXx9sfWyO2kxZIqJMUSgX3MV/kTwchogos1iTJSJSEUOWiEhFiiEbFWUEcxZliYgyRTFk7/73GMVbDkSfuqKDiIjSTTFkrRqUwo1fRuPnI6KDiIjSTbkm+/I+7t4Vz4mIKEO48EVEpCKFkC2Bj0wLiOdERJRRqYSsfFntRDh/eA3HroouIiLKEB7aTUSkItZkiYhUZGBiYgL5UahQIdFFRERZJc/KlSs15YLQ0FAsX75c00lERFmDNVkiIhWxJktEpCKGLBGRihiyREQqYsgSEamIIUtEpCKGLBGRaoD/A+dJiWHGoLoCAAAAAElFTkSuQmCC;" parent="1" vertex="1">
          <mxGeometry x="2534" y="-190" width="199" height="522.02" as="geometry" />
        </mxCell>
        <mxCell id="m4I7ly5vtadQsgDOiR0i-3" value="cin&amp;amp;cout" style="rounded=1;whiteSpace=wrap;html=1;" vertex="1" parent="1">
          <mxGeometry x="1654" y="420" width="120" height="60" as="geometry" />
        </mxCell>
        <mxCell id="m4I7ly5vtadQsgDOiR0i-4" value="" style="endArrow=classic;html=1;rounded=0;exitX=1;exitY=0.5;exitDx=0;exitDy=0;entryX=-0.004;entryY=0.653;entryDx=0;entryDy=0;entryPerimeter=0;" edge="1" parent="1" source="JGjVJQRwr5gKo0xPMDSC-15" target="m4I7ly5vtadQsgDOiR0i-3">
          <mxGeometry width="50" height="50" relative="1" as="geometry">
            <mxPoint x="1220" y="320" as="sourcePoint" />
            <mxPoint x="1270" y="270" as="targetPoint" />
          </mxGeometry>
        </mxCell>
        <mxCell id="m4I7ly5vtadQsgDOiR0i-5" value="和scanf、printf最大区别，省去格式符&lt;br&gt;他们是对象&amp;lt;iostream&amp;gt;" style="rounded=1;whiteSpace=wrap;html=1;" vertex="1" parent="1">
          <mxGeometry x="1894" y="420" width="336" height="60" as="geometry" />
        </mxCell>
        <mxCell id="m4I7ly5vtadQsgDOiR0i-6" value="" style="endArrow=classic;html=1;rounded=0;exitX=1;exitY=0.5;exitDx=0;exitDy=0;entryX=0;entryY=0.5;entryDx=0;entryDy=0;" edge="1" parent="1" source="m4I7ly5vtadQsgDOiR0i-3" target="m4I7ly5vtadQsgDOiR0i-5">
          <mxGeometry width="50" height="50" relative="1" as="geometry">
            <mxPoint x="1780" y="390" as="sourcePoint" />
            <mxPoint x="1830" y="340" as="targetPoint" />
          </mxGeometry>
        </mxCell>
        <mxCell id="m4I7ly5vtadQsgDOiR0i-7" value="new&amp;amp;delete" style="rounded=1;whiteSpace=wrap;html=1;" vertex="1" parent="1">
          <mxGeometry x="1654" y="780" width="120" height="60" as="geometry" />
        </mxCell>
        <mxCell id="m4I7ly5vtadQsgDOiR0i-8" value="" style="endArrow=classic;html=1;rounded=0;exitX=1;exitY=0.5;exitDx=0;exitDy=0;entryX=0;entryY=0.5;entryDx=0;entryDy=0;" edge="1" parent="1" source="JGjVJQRwr5gKo0xPMDSC-15" target="m4I7ly5vtadQsgDOiR0i-7">
          <mxGeometry width="50" height="50" relative="1" as="geometry">
            <mxPoint x="1060" y="510" as="sourcePoint" />
            <mxPoint x="1110" y="460" as="targetPoint" />
          </mxGeometry>
        </mxCell>
        <mxCell id="m4I7ly5vtadQsgDOiR0i-9" value="申请单个内存且初始化" style="rounded=1;whiteSpace=wrap;html=1;" vertex="1" parent="1">
          <mxGeometry x="1882" y="780" width="232" height="60" as="geometry" />
        </mxCell>
        <mxCell id="m4I7ly5vtadQsgDOiR0i-10" value="申请单个内存" style="rounded=1;whiteSpace=wrap;html=1;" vertex="1" parent="1">
          <mxGeometry x="1882" y="650" width="232" height="60" as="geometry" />
        </mxCell>
        <mxCell id="m4I7ly5vtadQsgDOiR0i-11" value="批量申请内存" style="rounded=1;whiteSpace=wrap;html=1;" vertex="1" parent="1">
          <mxGeometry x="1886" y="910" width="232" height="60" as="geometry" />
        </mxCell>
        <mxCell id="m4I7ly5vtadQsgDOiR0i-12" value="" style="endArrow=classic;html=1;rounded=0;entryX=0;entryY=0.5;entryDx=0;entryDy=0;exitX=1;exitY=0.5;exitDx=0;exitDy=0;" edge="1" parent="1" source="m4I7ly5vtadQsgDOiR0i-7" target="m4I7ly5vtadQsgDOiR0i-10">
          <mxGeometry width="50" height="50" relative="1" as="geometry">
            <mxPoint x="1790" y="790" as="sourcePoint" />
            <mxPoint x="1840" y="740" as="targetPoint" />
          </mxGeometry>
        </mxCell>
        <mxCell id="m4I7ly5vtadQsgDOiR0i-13" value="" style="endArrow=classic;html=1;rounded=0;exitX=1;exitY=0.5;exitDx=0;exitDy=0;entryX=0;entryY=0.5;entryDx=0;entryDy=0;" edge="1" parent="1" source="m4I7ly5vtadQsgDOiR0i-7" target="m4I7ly5vtadQsgDOiR0i-9">
          <mxGeometry width="50" height="50" relative="1" as="geometry">
            <mxPoint x="1750" y="980" as="sourcePoint" />
            <mxPoint x="1800" y="930" as="targetPoint" />
          </mxGeometry>
        </mxCell>
        <mxCell id="m4I7ly5vtadQsgDOiR0i-14" value="" style="endArrow=classic;html=1;rounded=0;exitX=1;exitY=0.5;exitDx=0;exitDy=0;entryX=0;entryY=0.5;entryDx=0;entryDy=0;" edge="1" parent="1" source="m4I7ly5vtadQsgDOiR0i-7" target="m4I7ly5vtadQsgDOiR0i-11">
          <mxGeometry width="50" height="50" relative="1" as="geometry">
            <mxPoint x="1770" y="970" as="sourcePoint" />
            <mxPoint x="1820" y="920" as="targetPoint" />
          </mxGeometry>
        </mxCell>
      </root>
    </mxGraphModel>
  </diagram>
</mxfile>
